<svg width="14" height="14" viewBox="0 0 14 14" fill="none" xmlns="http://www.w3.org/2000/svg">
<path d="M4.66669 3.354C4.42752 3.354 4.22919 3.15567 4.22919 2.9165V1.1665C4.22919 0.927337 4.42752 0.729004 4.66669 0.729004C4.90585 0.729004 5.10419 0.927337 5.10419 1.1665V2.9165C5.10419 3.15567 4.90585 3.354 4.66669 3.354Z" fill="#BEBEBE"/>
<path d="M9.33331 3.354C9.09415 3.354 8.89581 3.15567 8.89581 2.9165V1.1665C8.89581 0.927337 9.09415 0.729004 9.33331 0.729004C9.57248 0.729004 9.77081 0.927337 9.77081 1.1665V2.9165C9.77081 3.15567 9.57248 3.354 9.33331 3.354Z" fill="#BEBEBE"/>
<path d="M11.9584 5.73975H2.04169C1.80252 5.73975 1.60419 5.54141 1.60419 5.30225C1.60419 5.06308 1.80252 4.86475 2.04169 4.86475H11.9584C12.1975 4.86475 12.3959 5.06308 12.3959 5.30225C12.3959 5.54141 12.1975 5.73975 11.9584 5.73975Z" fill="#BEBEBE"/>
<path d="M9.33333 13.2707H4.66667C2.5375 13.2707 1.3125 12.0457 1.3125 9.9165V4.95817C1.3125 2.829 2.5375 1.604 4.66667 1.604H9.33333C11.4625 1.604 12.6875 2.829 12.6875 4.95817V9.9165C12.6875 12.0457 11.4625 13.2707 9.33333 13.2707ZM4.66667 2.479C2.99833 2.479 2.1875 3.28984 2.1875 4.95817V9.9165C2.1875 11.5848 2.99833 12.3957 4.66667 12.3957H9.33333C11.0017 12.3957 11.8125 11.5848 11.8125 9.9165V4.95817C11.8125 3.28984 11.0017 2.479 9.33333 2.479H4.66667Z" fill="#BEBEBE"/>
<path d="M4.95833 8.45818C4.8825 8.45818 4.80666 8.44068 4.73666 8.41152C4.66666 8.38235 4.6025 8.34151 4.54417 8.28901C4.49167 8.23067 4.45083 8.16651 4.42166 8.09651C4.39249 8.02651 4.375 7.95068 4.375 7.87484C4.375 7.72318 4.43917 7.57152 4.54417 7.46068C4.6025 7.40818 4.66666 7.36734 4.73666 7.33817C4.84166 7.2915 4.95834 7.27984 5.07501 7.30317C5.11001 7.309 5.145 7.32067 5.18 7.33817C5.215 7.34984 5.25 7.36735 5.285 7.39069C5.31417 7.41402 5.34333 7.43735 5.37249 7.46068C5.39583 7.48985 5.42499 7.51901 5.44249 7.54818C5.46583 7.58318 5.48334 7.61817 5.49501 7.65317C5.51251 7.68817 5.52417 7.72317 5.53001 7.75817C5.53584 7.799 5.54167 7.83401 5.54167 7.87484C5.54167 8.02651 5.47749 8.17817 5.37249 8.28901C5.26166 8.39401 5.11 8.45818 4.95833 8.45818Z" fill="#BEBEBE"/>
<path d="M7.00002 8.4585C6.84835 8.4585 6.69669 8.39433 6.58586 8.28933C6.56253 8.26016 6.53919 8.231 6.51586 8.20184C6.49253 8.16684 6.47501 8.13184 6.46335 8.09684C6.44585 8.06184 6.43418 8.02684 6.42835 7.99184C6.42251 7.95101 6.41669 7.916 6.41669 7.87517C6.41669 7.79934 6.43418 7.7235 6.46335 7.6535C6.49251 7.5835 6.53336 7.51934 6.58586 7.46101C6.74919 7.29768 7.01169 7.24516 7.22169 7.3385C7.29752 7.36766 7.35585 7.40851 7.41418 7.46101C7.51918 7.57184 7.58335 7.7235 7.58335 7.87517C7.58335 7.916 7.57753 7.95101 7.57169 7.99184C7.56586 8.02684 7.5542 8.06184 7.5367 8.09684C7.52503 8.13184 7.50751 8.16684 7.48418 8.20184C7.46085 8.231 7.43752 8.26016 7.41418 8.28933C7.35585 8.34183 7.29752 8.38268 7.22169 8.41184C7.15169 8.44101 7.07585 8.4585 7.00002 8.4585Z" fill="#BEBEBE"/>
<path d="M4.95833 10.5C4.8825 10.5 4.80666 10.4825 4.73666 10.4533C4.66666 10.4242 4.6025 10.3833 4.54417 10.3308C4.49167 10.2725 4.45083 10.2142 4.42166 10.1383C4.39249 10.0683 4.375 9.99251 4.375 9.91667C4.375 9.76501 4.43917 9.61335 4.54417 9.50251C4.6025 9.45001 4.66666 9.40917 4.73666 9.38C4.9525 9.28667 5.20916 9.33918 5.37249 9.50251C5.39583 9.53168 5.42499 9.56084 5.44249 9.59001C5.46583 9.62501 5.48334 9.66 5.49501 9.695C5.51251 9.73 5.52417 9.76501 5.53001 9.80584C5.53584 9.84084 5.54167 9.88167 5.54167 9.91667C5.54167 10.0683 5.47749 10.22 5.37249 10.3308C5.26166 10.4358 5.11 10.5 4.95833 10.5Z" fill="#BEBEBE"/>
</svg>
