<?xml version="1.0" encoding="UTF-8"?> <svg xmlns="http://www.w3.org/2000/svg" width="211" height="46" viewBox="0 0 211 46" fill="none"> <g clip-path="url(#clip0)"> <path d="M55.5286 1.95557H52.7495V12.687H55.5286V1.95557Z" fill="#5EC5EE"></path> <path d="M55.5286 12.687H52.7495V23.4184H55.5286V12.687Z" fill="#2588C3"></path> <path d="M55.5286 23.4185H52.7495V34.1499H55.5286V23.4185Z" fill="#045D89"></path> <path d="M55.5286 34.1494H52.7495V44.8808H55.5286V34.1494Z" fill="#E3EBF1"></path> <path d="M25.157 22.0603C25.1466 22.0499 24.8968 21.7897 24.4649 21.7897C24.2359 21.7897 24.0017 21.8625 23.7675 21.9979C23.7258 22.0187 23.6998 22.0655 23.7102 22.1124C23.7102 22.1228 23.882 23.2885 23.7519 23.7882C23.653 24.1629 23.3355 24.6053 22.7578 24.6053C22.6329 24.6053 22.508 24.5844 22.3727 24.548H22.3675L22.8047 24.2514C22.8359 24.2305 22.8567 24.1941 22.8567 24.1525C22.8567 24.1108 22.8359 24.0796 22.8047 24.0536L21.9355 23.4551C22.2114 23.2469 22.3831 23.1012 22.4039 23.0804C22.43 23.0596 22.4456 23.0283 22.4456 22.9971C22.4456 22.9659 22.4352 22.9346 22.4091 22.9086L22.253 22.7525C22.2322 22.7317 22.201 22.7161 22.1697 22.7161C22.1437 22.7161 22.1177 22.7265 22.0969 22.7421C22.0865 22.7473 21.8575 22.9242 21.5088 23.1636L21.1601 22.9242L22.5236 21.9875L22.6277 22.2581C22.6433 22.2997 22.685 22.3309 22.7318 22.3309C22.7318 22.3309 22.7318 22.3309 22.737 22.3309C22.7786 22.3309 22.8203 22.3049 22.8411 22.2685L23.4916 21.0715C23.5125 21.0298 23.5073 20.983 23.4864 20.9466C23.4656 20.9153 23.4292 20.8945 23.3876 20.8945C23.3824 20.8945 23.3771 20.8945 23.3719 20.8945L22.0292 21.0975C21.9824 21.1027 21.9459 21.1339 21.9303 21.1808C21.9199 21.2224 21.9303 21.2692 21.9668 21.3005L22.1853 21.493L20.6344 22.5599L19.0887 21.493L19.3073 21.3005C19.3385 21.2692 19.3542 21.2224 19.3386 21.1808C19.3281 21.1339 19.2917 21.1027 19.2449 21.0975L17.9021 20.8945C17.8969 20.8945 17.8917 20.8945 17.8865 20.8945C17.8449 20.8945 17.8085 20.9101 17.7876 20.9466C17.7616 20.983 17.7616 21.0298 17.7824 21.0715L18.4278 22.2685C18.4486 22.3049 18.4902 22.3309 18.5319 22.3309C18.5371 22.3309 18.5371 22.3309 18.5371 22.3309C18.5839 22.3309 18.6203 22.2997 18.6412 22.2581L18.7505 21.9875L20.114 22.9242L19.7653 23.1636C19.4166 22.9242 19.1876 22.7473 19.1824 22.7421C19.1616 22.7265 19.1356 22.7161 19.1096 22.7161C19.0783 22.7161 19.0471 22.7265 19.0263 22.7525L18.8702 22.9086C18.8493 22.9294 18.8337 22.9607 18.8337 22.9971C18.8337 23.0283 18.8493 23.0596 18.8754 23.0804C18.9014 23.1012 19.0731 23.2469 19.349 23.4551L18.4798 24.0536C18.4486 24.0744 18.4278 24.1108 18.4278 24.1525C18.4278 24.1941 18.4486 24.2253 18.4798 24.2514L18.917 24.548C18.917 24.548 18.917 24.548 18.9118 24.548C18.7765 24.5844 18.6516 24.6053 18.5267 24.6053C17.949 24.6053 17.6263 24.1629 17.5274 23.7882C17.3973 23.2885 17.5691 22.1228 17.5691 22.1124C17.5743 22.0655 17.5534 22.0187 17.5118 21.9979C17.2724 21.8625 17.0382 21.7897 16.8144 21.7897C16.3773 21.7897 16.1274 22.0447 16.117 22.0603C16.0962 22.0759 16.0858 22.1072 16.0858 22.128C16.0806 22.2008 15.9453 23.8818 16.726 24.7354C17.0122 25.0476 17.3921 25.209 17.8449 25.209C17.923 25.209 18.0114 25.209 18.0947 25.1934C18.5371 25.1413 18.969 25.0216 19.3906 24.8759L20.114 25.3651L18.5163 26.4476C18.485 26.4736 18.4642 26.5049 18.4642 26.5465C18.4642 26.5829 18.4798 26.6194 18.5163 26.6454L20.1192 27.7539L18.7505 28.7011L18.6464 28.4357C18.6308 28.394 18.5891 28.368 18.5423 28.3628C18.5423 28.3628 18.5423 28.3628 18.5371 28.3628C18.4954 28.3628 18.4538 28.3888 18.433 28.4253L17.7876 29.6223C17.7668 29.6587 17.772 29.7108 17.7928 29.742C17.8137 29.7732 17.8501 29.794 17.8917 29.794C17.8969 29.794 17.9021 29.794 17.9073 29.794L19.2501 29.5963C19.2969 29.5911 19.3333 29.5546 19.3438 29.513C19.3594 29.4661 19.3438 29.4193 19.3125 29.3881L19.0887 29.1903L20.6396 28.1182L22.1905 29.1903L21.9668 29.3881C21.9303 29.4193 21.9199 29.4661 21.9303 29.513C21.9407 29.5546 21.9824 29.5858 22.0292 29.5963L23.3719 29.794C23.3771 29.794 23.3824 29.794 23.3876 29.794C23.424 29.794 23.4604 29.7784 23.4864 29.742C23.5125 29.7055 23.5125 29.6587 23.4916 29.6223L22.8411 28.4253C22.8203 28.3888 22.7838 28.3628 22.737 28.3628H22.7318C22.6798 28.3628 22.6433 28.394 22.6277 28.4357L22.5236 28.7011L21.1549 27.7539L22.7578 26.6454C22.7891 26.6246 22.8099 26.5881 22.8099 26.5465C22.8099 26.5049 22.7891 26.4736 22.7578 26.4476L21.1601 25.3651L21.8835 24.8759C22.2998 25.0268 22.7318 25.1413 23.1742 25.1934C23.2627 25.2038 23.3459 25.209 23.424 25.209C23.882 25.209 24.2567 25.0476 24.5429 24.7354C25.3236 23.8818 25.1883 22.2008 25.1831 22.128C25.1831 22.1072 25.1727 22.0811 25.157 22.0603ZM20.6292 23.299L20.9727 23.5332C20.8634 23.6008 20.7489 23.6737 20.6292 23.7465C20.5095 23.6737 20.395 23.606 20.2857 23.5332L20.6292 23.299ZM19.3802 24.1577L19.8538 23.8298C19.9475 23.8871 20.0411 23.9495 20.1452 24.0172C19.9579 24.116 19.7705 24.2097 19.5832 24.2982L19.3802 24.1577ZM21.8523 26.5465L20.6292 27.3896L19.4114 26.5465L20.6292 25.719L21.8523 26.5465ZM20.6292 25.006L20.0411 24.6053C20.2493 24.5064 20.4419 24.4075 20.6292 24.3034C20.8166 24.4075 21.0144 24.5064 21.2225 24.6053L20.6292 25.006ZM21.6805 24.2982C21.4932 24.2149 21.3006 24.1212 21.1132 24.0172C21.2173 23.9547 21.311 23.8923 21.4047 23.8298L21.8835 24.1577L21.6805 24.2982Z" fill="#706F6F"></path> <path d="M25.5684 23.0488C25.6152 22.9551 25.636 22.7781 25.636 22.7781L25.5684 22.7573V23.0488Z" fill="#706F6F"></path> <path d="M40.9464 18.8801C40.4468 18.5783 39.6193 18.4742 38.7762 18.5523C40.0929 18.0943 40.9932 17.1159 41.0401 16.2415C40.3531 16.0438 39.6401 16.1478 39.0208 16.2884C39.6609 15.8096 40.7122 14.9352 40.5821 13.6497C39.9628 13.4988 38.8283 13.9308 38.3547 14.1442C39.8743 13.2906 40.4208 11.2713 39.6141 10.1264C39.1353 10.4074 36.9651 12.6245 36.6112 12.8795C37.7354 11.594 38.261 10.6728 38.5628 9.80891C38.9219 8.86692 38.948 7.22233 37.7822 6.67067C37.2305 7.93013 35.305 11.162 34.2329 12.5048C34.1132 12.4007 34.0195 12.2602 33.8686 12.2341C33.6136 13.0512 32.8537 14.139 32.1616 14.6594C32.1251 14.5917 32.0575 14.4044 31.9378 14.2014C31.204 15.2995 29.2992 16.8036 28.6851 17.73C28.2063 18.417 28.2063 19.0363 28.8725 19.6764C29.1431 19.947 29.6531 20.4206 29.2108 21.0868C28.6071 21.9663 27.3945 22.0704 26.7387 21.55C26.7387 21.3939 26.7335 21.2429 26.7283 21.1024C27.5037 20.8006 27.6859 19.7441 27.1134 19.0883C26.9885 19.3277 26.7804 19.5047 26.5306 19.5931C26.4629 19.3173 26.4056 19.1872 26.4004 19.1716L26.3692 19.1091H26.3016C26.2964 19.1091 26.0413 19.0935 25.6614 19.0519C26.0934 18.9114 26.3692 18.5106 26.3068 17.9746C25.6406 18.5471 24.9745 18.0006 24.8235 17.8497C24.4072 17.3605 24.2875 16.8088 24.454 15.9657C24.5946 15.2319 25.3544 14.0661 25.854 13.6914C25.9269 13.759 26.0413 13.8996 26.2859 13.8787C26.4265 13.8319 26.6607 13.7122 26.8376 13.6445C27.3424 13.4936 27.8316 13.6081 28.1439 13.8111C28.7163 14.1598 28.6643 14.5449 28.6487 14.8259C29.5178 14.3367 29.216 13.5196 28.0762 13.2178C28.8569 13.2178 29.497 13.9308 29.6635 14.0193C30.0955 14.3367 30.7148 14.2639 31.0739 14.0921C31.7661 13.7642 31.9066 12.9471 31.7192 12.7806C31.6516 13.0721 31.4278 13.3323 31.027 13.3791C30.4338 13.4468 29.8613 13.1918 29.4085 12.9888C29.0234 12.8274 28.4041 12.7077 27.9825 12.7338C28.7632 12.3018 29.9758 12.3486 30.4077 13.0148C30.6679 12.8066 30.8293 12.6193 30.9021 12.1873C31.1259 11.0215 30.2152 10.423 29.242 10.423C29.268 10.142 29.0702 10.0015 28.81 10.0951C28.81 9.97545 28.7788 9.88177 28.7111 9.83493C28.732 9.83493 28.7632 9.82452 28.784 9.82452C29.7624 9.75686 30.6888 9.45501 31.1884 8.92937C32.0627 7.99258 30.6679 6.80598 31.1676 5.88481C31.6464 6.09298 32.0002 6.36361 32.6612 6.45729C32.7288 6.59781 32.7913 6.87884 32.8121 7.02977C33.0255 8.07065 32.0002 8.24239 32.2657 9.35092C32.3802 9.85575 32.7601 10.0275 32.885 10.626C32.885 10.626 32.9318 11.0423 32.5675 11.4067C33.4106 11.4275 33.853 10.7145 33.5928 10.0535C33.4783 9.78289 33.1868 9.52787 33.1868 9.2104C33.6188 9.78289 34.0039 9.76207 34.67 9.54869C34.9719 9.45501 34.9979 9.87657 34.8106 10.2149C35.2685 9.94422 35.383 9.50185 35.383 9.30408C35.383 8.83569 35.0187 8.61711 34.67 8.71078C34.4723 8.7316 34.0768 9.00223 34.0507 8.61711C33.9675 7.95095 35.0187 7.97697 34.8053 6.90486C34.6909 6.36881 34.0924 6.07216 33.1608 5.95767C33.0671 5.86399 32.8329 5.6402 32.708 5.45284C32.198 4.60453 31.6672 4.38074 31.3497 4.55248C30.975 4.73984 30.7824 4.90118 30.4754 5.06772C30.2308 5.19783 29.9706 5.26549 29.8092 5.45284C29.4033 5.95767 29.7884 6.73832 29.9966 7.21713C30.1371 7.49816 30.4754 8.1383 30.3245 8.61711C30.1579 9.18959 29.216 9.54869 28.6435 9.66839C28.6071 9.66839 28.581 9.6788 28.5446 9.6788V9.45501C28.7111 9.16356 28.8517 8.81487 28.9662 8.49741C29.3513 7.46694 28.7788 7.05059 27.9305 6.85282C27.8212 6.78516 27.7067 6.75914 27.5662 6.80598H27.5402L27.5194 6.97773L27.4049 6.9413L27.4309 6.73312H27.3788C27.4777 6.66546 27.5194 6.54576 27.5194 6.43127C27.5194 6.30636 27.4725 6.20748 27.4257 6.13982H27.5402L27.4933 6.09298C27.4725 6.04614 27.4257 5.9993 27.3528 5.92644C27.332 5.90562 27.306 5.85878 27.306 5.83276C27.3268 5.85358 27.3528 5.8796 27.3997 5.90042C27.4465 5.94726 27.5142 5.9941 27.5402 6.04094L27.6078 6.08778V5.14578L27.5402 5.20303C27.5194 5.22385 27.4465 5.27069 27.3997 5.32273C27.3528 5.36957 27.332 5.36957 27.306 5.39039C27.306 5.36957 27.3268 5.34355 27.3528 5.29671C27.4257 5.24987 27.4725 5.18222 27.4933 5.14578L27.5402 5.07292H26.5826L26.6294 5.14578C26.6763 5.17701 26.7335 5.24987 26.7804 5.29671C26.8012 5.34355 26.8272 5.36957 26.848 5.39039C26.822 5.36957 26.7804 5.36957 26.7543 5.32273C26.6711 5.27589 26.6294 5.22905 26.5826 5.20303L26.5462 5.14578V6.10339L26.593 6.05655C26.6398 6.00971 26.6867 5.96287 26.7647 5.91603C26.7908 5.89522 26.8324 5.86919 26.8584 5.84838C26.8324 5.86919 26.8116 5.91603 26.7908 5.94205C26.7439 6.01492 26.6815 6.05655 26.6398 6.10859L26.593 6.15543H26.7439C26.6607 6.22309 26.6398 6.32197 26.6398 6.44688C26.6398 6.56138 26.6867 6.68108 26.7647 6.74873H26.7439L26.7647 6.95691L26.6398 6.99334L26.6138 6.82159H26.593C26.4525 6.77476 26.338 6.80078 26.2443 6.86843C25.3804 7.0662 24.8079 7.48776 25.1931 8.51302C25.3127 8.83049 25.4533 9.17918 25.625 9.47062V9.62155C24.7611 9.34052 23.205 8.39332 22.7887 7.82084C22.7418 7.76359 22.7054 7.71675 22.6846 7.68032H22.6794L22.695 7.061C22.9968 6.55617 23.2675 5.93685 23.4756 5.36957C24.0221 3.88632 23.2154 3.267 21.9352 3.01199C21.8051 2.91831 21.6437 2.87147 21.4304 2.94433L21.3835 3.17853L21.1129 3.15771L21.1337 2.85586C21.0973 2.86627 21.0504 2.86627 21.0036 2.86627C21.1858 2.77259 21.3159 2.5488 21.3159 2.31981C21.3159 2.15327 21.2326 1.9555 21.0921 1.86182H21.3159C21.1858 1.74732 20.9776 1.50272 20.936 1.33618C21.0973 1.38302 21.3419 1.6016 21.4564 1.7213V0.508682C21.3419 0.602361 21.0973 0.836558 20.936 0.857376C20.9776 0.722062 21.1858 0.487865 21.3159 0.368164H20.1033C20.1969 0.487865 20.4311 0.722062 20.452 0.857376C20.3114 0.836558 20.0772 0.602361 19.9471 0.508682V1.7213C20.0772 1.6016 20.3062 1.38302 20.452 1.33618C20.4311 1.49751 20.1969 1.74212 20.1033 1.86182H20.3114C20.1709 1.9555 20.1033 2.15327 20.1033 2.31981C20.1033 2.5488 20.2178 2.77779 20.4051 2.86627C20.3583 2.86627 20.3114 2.86627 20.2386 2.84545L20.2646 3.1473L19.994 3.16812L19.968 2.93392C19.7598 2.86627 19.5985 2.91311 19.4579 3.00158C18.1881 3.2618 17.3814 3.87592 17.9279 5.35916C18.1152 5.92644 18.3859 6.55097 18.7085 7.05059V7.69073C18.6877 7.71154 18.6617 7.75838 18.6148 7.80522C18.2089 8.3777 16.6424 9.3249 15.7785 9.60594V9.45501C15.9503 9.16356 16.096 8.81487 16.2105 8.49741C16.5956 7.46694 16.0231 7.05059 15.1592 6.85282C15.0603 6.78516 14.951 6.75914 14.8105 6.80598H14.7897L14.7637 6.97773L14.6492 6.9413L14.67 6.73312H14.6492C14.7168 6.66546 14.7637 6.54576 14.7637 6.43127C14.7637 6.30636 14.7429 6.20748 14.67 6.13982H14.8105L14.7637 6.09298C14.7168 6.04614 14.67 5.9993 14.6232 5.92644C14.6023 5.90562 14.5659 5.85878 14.5399 5.83276C14.5659 5.85358 14.6232 5.8796 14.644 5.90042C14.7116 5.94726 14.7585 5.9941 14.8105 6.04094L14.8574 6.08778V5.14578L14.8105 5.20303C14.7637 5.22385 14.7168 5.27069 14.644 5.32273C14.6232 5.36957 14.5659 5.36957 14.5399 5.39039C14.5659 5.36957 14.5971 5.34355 14.6232 5.29671C14.67 5.24987 14.7168 5.18222 14.7637 5.14578L14.8105 5.07292H13.8529L13.8998 5.14578C13.9206 5.17701 13.983 5.24987 14.0299 5.29671C14.0767 5.34355 14.0975 5.36957 14.0975 5.39039C14.0819 5.36437 14.0559 5.36437 14.0143 5.31753C13.957 5.27069 13.8842 5.22385 13.8633 5.19783L13.7905 5.14058V6.09819L13.8633 6.05135C13.8842 6.00451 13.957 5.95767 14.0143 5.91083C14.0611 5.89001 14.0819 5.86399 14.1027 5.84317C14.1027 5.86399 14.0819 5.91083 14.0351 5.93685C13.9882 6.00971 13.9258 6.05135 13.905 6.10339L13.8581 6.15023H13.983C13.9258 6.21789 13.8737 6.31677 13.8737 6.44168C13.8737 6.55617 13.9206 6.67587 14.0299 6.74353H13.983L14.0091 6.9517L13.879 6.98813L13.8581 6.81639H13.8321C13.6916 6.76955 13.5771 6.79557 13.4834 6.86323C12.6195 7.061 12.047 7.48255 12.4322 8.50781C12.5519 8.82528 12.6924 9.17397 12.8641 9.46542V9.68921C12.8277 9.68921 12.7965 9.6788 12.7704 9.6788C12.198 9.5591 11.2404 9.2 11.0791 8.62751C10.9281 8.14871 11.2664 7.50857 11.4069 7.22754C11.6307 6.74873 12.0054 5.96808 11.6099 5.46325C11.4329 5.27589 11.1779 5.20824 10.9281 5.07813C10.6263 4.91679 10.4389 4.75025 10.0538 4.56289C9.74676 4.39115 9.22633 4.60973 8.69549 5.46325C8.581 5.65061 8.3364 5.86919 8.23752 5.96808C7.31636 6.08257 6.72307 6.37402 6.59297 6.91527C6.37959 7.98738 7.43086 7.96656 7.3632 8.62751C7.33718 9.01264 6.93124 8.74201 6.74389 8.72119C6.37959 8.62751 6.0205 8.8461 6.0205 9.31449C6.0205 9.51226 6.1506 9.95463 6.59297 10.2253C6.40561 9.88697 6.42643 9.46542 6.74389 9.5591C7.41004 9.77248 7.77954 9.7933 8.2167 9.22081C8.2167 9.53308 7.93567 9.79329 7.81077 10.0639C7.55055 10.7301 7.98251 11.4379 8.83601 11.4171C8.45089 11.0528 8.52896 10.6364 8.52896 10.6364C8.64866 10.0379 9.02336 9.86616 9.14827 9.36133C9.40848 8.2528 8.37803 8.08105 8.60182 7.04018C8.62263 6.88925 8.66947 6.60822 8.74233 6.4677C9.40848 6.37402 9.77278 6.10859 10.236 5.89522C10.7148 6.81639 9.33562 8.00299 10.2151 8.93978C10.72 9.46542 11.6515 9.76727 12.6195 9.83493C12.6403 9.83493 12.6716 9.84534 12.6976 9.85054C12.6299 9.89738 12.5935 9.98586 12.5935 10.1056C12.3385 10.0119 12.1407 10.1524 12.1772 10.4334C11.1727 10.4334 10.288 11.0319 10.5066 12.1977C10.5742 12.6297 10.7408 12.817 11.0114 13.0252C11.4329 12.3591 12.6455 12.3122 13.4366 12.7442C13.0046 12.7182 12.3853 12.8379 12.0054 12.9992C11.5578 13.197 10.9906 13.4572 10.3973 13.3895C9.98616 13.3427 9.77798 13.0877 9.69472 12.791C9.50736 12.9576 9.64788 13.7694 10.3453 14.1025C10.6939 14.2743 11.3132 14.3471 11.7452 14.0297C11.9117 13.936 12.5519 13.2282 13.3377 13.2282C12.2032 13.53 11.8857 14.3471 12.7756 14.8363C12.7392 14.5553 12.6976 14.1702 13.2648 13.8215C13.5823 13.6237 14.0819 13.504 14.5763 13.6549C14.7481 13.7226 14.9823 13.8423 15.1228 13.8891C15.3674 13.91 15.4819 13.7694 15.5547 13.7018C16.0595 14.0765 16.7933 15.2423 16.9547 15.9761C17.1316 16.8192 17.0015 17.3657 16.58 17.8601C16.4395 18.011 15.7629 18.5575 15.102 17.985C15.0395 18.521 15.3153 18.9166 15.7473 19.0623C15.3622 19.1039 15.102 19.1195 15.0968 19.1195H15.0291L15.0031 19.182C14.9979 19.1924 14.9406 19.3277 14.8678 19.5983C14.6284 19.5047 14.4202 19.3329 14.2953 19.0935C13.7228 19.7493 13.8998 20.8006 14.67 21.1024C14.6648 21.2481 14.6596 21.3991 14.6596 21.5604C13.9987 22.0704 12.8017 21.9611 12.2084 21.0868C11.7504 20.4206 12.276 19.9418 12.5363 19.6764C13.2024 19.0363 13.2024 18.417 12.7184 17.73C12.0991 16.8088 10.1995 15.2995 9.46573 14.2014C9.34603 14.3992 9.27837 14.5865 9.25235 14.6594C8.56539 14.139 7.79515 13.0512 7.54014 12.2341C7.39963 12.255 7.29554 12.4007 7.17585 12.5048C6.11417 11.162 4.17818 7.93013 3.63173 6.67067C2.47638 7.22233 2.4972 8.86692 2.85109 9.80891C3.16335 10.6728 3.68898 11.594 4.79749 12.8795C4.44881 12.6193 2.27862 10.4074 1.79983 10.1264C0.99837 11.2713 1.54482 13.2906 3.05926 14.1442C2.59608 13.9308 1.45114 13.4988 0.831833 13.6497C0.717339 14.9352 1.75299 15.8096 2.39312 16.2884C1.7686 16.1478 1.05562 16.0438 0.368652 16.2415C0.415491 17.1159 1.32624 18.0995 2.60649 18.5523C1.78942 18.469 0.96194 18.5783 0.457125 18.8801C0.550802 19.7909 1.58125 20.5768 2.81466 20.7641C1.98718 20.8578 1.25338 21.2221 0.868263 21.7217C1.32103 22.315 1.98718 22.773 3.00202 22.7522C2.76782 22.8355 2.4972 22.9968 2.26821 23.2154C2.24219 23.1946 2.19535 23.1686 2.15372 23.1686C2.10168 23.1894 2.08606 23.2622 2.10168 23.3091C2.10168 23.3091 2.10168 23.3091 2.10168 23.3455C2.0028 23.4132 1.95075 23.4964 1.94034 23.5797C1.84667 23.715 1.74779 23.8711 1.69574 24.0117C1.72176 24.0221 1.74258 24.0481 1.7634 24.0585C1.75819 24.1314 1.77901 24.2198 1.83626 24.3083C1.78942 24.3552 1.7686 24.4228 1.74258 24.4957L1.14929 24.2563C1.11807 24.7975 1.23777 25.2399 1.50839 25.5157C1.72176 25.7603 1.96637 25.7239 1.89351 25.8072L2.53884 26.2027C2.65333 26.4473 2.88752 26.4473 3.04885 26.3797C3.04885 26.3797 3.04885 26.4005 3.04885 26.4265C3.04885 26.6815 3.2258 26.8897 3.45479 26.973C3.40795 27.1863 3.50163 27.3216 3.79307 27.4205L6.21826 33.3015C6.12458 33.5825 6.21826 33.8271 6.43163 33.9208C6.37959 33.9885 6.33796 34.0613 6.33796 34.2018C6.43163 34.1342 6.57215 34.1082 6.63981 34.3059C6.68664 34.4464 6.43163 34.8992 6.81675 35.2063C6.76471 35.4769 6.91043 35.7527 7.18625 35.8724C7.18625 36.013 7.31636 36.4657 7.33718 36.6271C7.16544 36.8717 6.76471 37.2464 6.81675 37.6575C6.86359 37.949 6.97808 38.0427 7.21228 38.1155C7.1186 38.6412 7.41004 38.8754 7.8524 38.9014C7.8524 39.2865 8.2115 39.4218 8.44569 39.4478C8.66947 39.6144 8.76315 39.682 9.01816 39.8122C8.78397 40.088 8.9505 40.4523 9.37725 40.572C9.42409 40.7333 9.54379 40.8739 9.78319 40.9311C9.9237 41.1653 10.1787 41.1653 10.3296 41.0976C10.4233 41.0508 10.5899 40.7802 10.4441 40.546C10.5378 40.4315 10.491 40.2077 10.4233 40.0672C10.5638 39.8122 10.4441 39.4947 10.2516 39.401C10.2776 39.2605 10.2047 39.0367 10.1579 38.9014C10.4962 38.688 10.9177 38.4226 11.0686 38.3289C11.8961 37.7356 12.8329 37.2048 13.8946 37.1371C14.1652 37.1111 14.6648 37.0903 14.9458 37.1111C15.3778 37.1579 15.9711 37.288 16.3198 37.0174C16.429 36.9497 16.4967 36.83 16.4759 36.7155C16.4291 36.4449 16.1376 36.2107 16.0439 35.9713C16.0179 35.8985 15.9763 35.7892 15.9294 35.6903C16.2313 35.7423 16.5123 35.7007 16.6841 35.6174C16.8714 35.5498 17.3242 35.2115 17.3034 34.7067C16.9391 34.8784 16.0647 35.1126 15.9711 34.2279C15.8774 33.4472 16.5644 32.781 17.6416 33.0725C18.3754 33.2598 19.4475 34.8212 18.4691 35.5029C17.9903 35.8308 17.2565 36.1431 17.3502 36.9966C17.6625 36.6115 18.084 36.4241 18.6305 36.4709C17.829 37.0642 17.2097 37.1371 16.3666 37.5899C15.6328 38.0218 15.0863 38.7349 14.5087 38.7557C14.0663 38.7765 13.8217 38.2508 14.2537 37.8449C13.8217 37.7512 13.2492 38.0895 13.0879 38.5423C12.8797 39.1616 13.0411 39.604 13.4262 39.8538C12.9058 40.1348 12.5154 40.6813 12.7028 41.4619C12.8797 42.1021 13.5199 42.1021 13.2753 42.9192C13.6344 42.8255 13.8685 42.5809 13.9726 42.2322C14.0195 41.9876 14.0663 41.7326 14.186 41.6129C14.134 42.1021 14.415 42.8255 15.0863 43.1534C15.5391 43.3772 16.2521 43.4656 16.7986 42.8984C17.0223 43.5385 17.777 44.0902 18.5628 44.0641C18.9219 44.0641 19.2758 43.908 19.5412 43.7519C19.7286 44.2255 20.2074 44.7095 20.6809 44.9385C21.1701 44.7095 21.6489 44.2255 21.8467 43.7519C22.1069 43.9132 22.466 44.0641 22.8147 44.0641C23.5693 44.085 24.3656 43.5385 24.5789 42.8984C25.1254 43.4656 25.8384 43.3772 26.2912 43.1534C26.9573 42.8255 27.2383 42.1021 27.1915 41.6129C27.3164 41.7326 27.3632 41.9876 27.4153 42.2322C27.509 42.5809 27.7379 42.8255 28.1022 42.9192C27.8576 42.1021 28.5134 42.1021 28.6747 41.4619C28.8621 40.6813 28.4769 40.1296 27.9617 39.8538C28.3364 39.6092 28.5134 39.1668 28.2896 38.5423C28.1283 38.0895 27.5558 37.7512 27.1238 37.8449C27.5558 38.2508 27.3216 38.7765 26.8688 38.7557C26.2964 38.7349 25.7499 38.0166 25.0109 37.5899C24.173 37.1319 23.5537 37.0642 22.747 36.4709C23.2935 36.4241 23.7254 36.6115 24.0273 36.9966C24.121 36.1431 23.3872 35.8308 22.9084 35.5029C21.9404 34.8212 23.0021 33.2598 23.7515 33.0725C24.8131 32.781 25.5157 33.4472 25.4064 34.2279C25.2919 35.1178 24.4384 34.8836 24.0533 34.7067C24.0533 35.2063 24.5061 35.5446 24.6934 35.6174C24.912 35.7215 25.318 35.7788 25.677 35.6226C25.6666 35.7111 25.651 35.8048 25.651 35.8308C25.5782 36.5906 25.1722 36.6583 25.3127 36.9706C25.5105 37.2048 26.8168 37.1579 27.1707 37.2308C27.79 37.3141 28.3156 37.543 28.9089 37.6628C29.5751 37.8033 30.2828 37.8033 30.8813 38.0479C31.2664 38.2144 31.6984 38.5267 32.0731 38.714C32.6456 38.8077 32.5519 39.0419 32.9162 39.0419C33.2441 39.0419 33.369 38.7609 33.7905 38.6464C34.082 38.5787 34.4098 38.6932 34.7013 38.5995C34.9146 38.5527 35.0083 38.3341 35.2061 38.2144C35.4403 38.0739 35.7681 38.0739 35.9867 37.8709C36.1012 37.7668 36.1272 37.5691 36.1064 37.4286L36.1116 37.4598C36.5592 37.1475 36.8975 36.6895 37.0848 36.1639C37.1993 36.1431 37.293 36.039 37.293 35.9193C37.293 35.8985 37.293 35.8724 37.293 35.8724C37.4075 35.7788 37.4803 35.6382 37.4803 35.4977C37.4803 35.3208 37.4127 35.1803 37.293 35.0658C37.293 35.0658 37.293 35.0397 37.293 35.0189C37.293 34.9252 37.2462 34.8576 37.1993 34.7951C37.012 33.7803 36.2417 32.9632 35.2477 32.7082C35.2477 32.6822 35.2477 32.6822 35.2477 32.6613H35.2269C35.2269 32.6145 35.2061 32.5885 35.1697 32.5885C35.0291 32.448 34.8626 32.2294 34.8418 32.0889C35.0031 32.1357 35.2737 32.3907 35.4142 32.4948V31.1521C35.2737 31.2562 35.0083 31.5112 34.8418 31.558C34.8626 31.3915 35.1176 31.1 35.2477 30.9855H33.8842C34.0091 31.1 34.2693 31.3915 34.2901 31.558C34.1288 31.5112 33.8582 31.2562 33.7229 31.1521V32.4948C33.8634 32.3907 34.1288 32.1357 34.2901 32.0889C34.2693 32.2554 34.0091 32.5468 33.8842 32.6613L33.931 32.6822C32.9162 32.9164 32.0991 33.7595 31.9118 34.7951C31.8441 34.8524 31.7973 34.9252 31.7973 35.0189C31.7973 35.0397 31.7973 35.0658 31.7973 35.0658C31.6776 35.1803 31.6099 35.3208 31.6099 35.4977C31.6099 35.633 31.6776 35.7788 31.7973 35.8724C31.7973 35.8724 31.7973 35.8933 31.7973 35.9193C31.7973 36.0702 31.891 36.1431 32.0054 36.1639C32.0523 36.294 32.1095 36.4241 32.172 36.5386C32.172 36.5282 32.172 36.5282 32.1876 36.5126C32.1043 36.8977 31.6359 37.1319 31.5319 37.1319C30.6992 37.2516 29.778 36.8977 28.9401 36.5854C28.5706 36.4449 28.0658 36.2836 27.8212 35.9193C27.6703 35.6539 27.6026 35.4873 27.6807 35.2531C27.7744 35.3676 27.9253 35.4977 28.1387 35.6122C28.1595 35.4977 28.1595 35.3676 28.2063 35.2739C28.4197 35.5914 28.758 35.7527 29.1639 35.7319C28.9193 35.5237 28.8048 34.9721 28.9193 34.4933C29.2576 35.0658 30.543 35.1803 30.7772 34.155C30.2984 34.3788 29.9914 34.1342 29.9029 33.874C29.7624 33.4628 30.2308 32.4688 29.8092 31.7037C29.471 31.1313 29.0858 30.7826 28.1907 30.642C28.2584 30.5327 28.2844 30.4391 28.3052 30.2777C27.4777 30.5796 26.7647 30.3454 26.4265 29.6844C26.593 29.7521 26.8324 29.7781 27.0666 29.7781C26.3328 29.1796 26.3796 27.4882 26.9053 26.6138C26.9729 26.567 26.9989 26.5202 27.0666 26.4994C27.2279 26.8272 27.7067 26.8272 27.9513 27.0927C28.045 26.999 28.0918 26.973 28.1855 26.8949C28.1855 26.8949 28.2063 28.2845 28.3 28.8569C28.3937 29.4971 29.013 29.4294 29.3305 29.7105C29.7052 29.2993 30.3817 29.3201 30.2776 28.6123C30.184 27.9045 30.0434 27.2592 30.0226 26.7804C30.2308 27.2124 30.6419 28.8361 30.8033 29.2993C31.0687 29.9863 31.7348 29.7781 32.1095 30.0487C32.3541 29.5699 32.9734 29.4294 32.7288 28.706C32.6612 28.5187 31.6464 26.3849 31.4954 25.9737C31.8545 26.4994 32.8381 28.3781 33.14 28.9038C33.4783 29.4502 34.0976 29.1848 34.5399 29.3201C34.6232 28.9246 35.2217 28.4666 34.7845 27.7796C34.2381 26.8689 32.9526 25.2815 32.885 25.0577C33.14 25.3023 35.1332 27.7796 35.2893 27.9149C35.7525 28.3209 36.4291 28.0086 36.8298 28.0086C36.8298 27.5558 37.1889 27.0406 36.6685 26.515C36.1897 26.057 35.0916 25.2763 34.8574 25.0109C35.5912 25.5157 36.4551 26.3172 36.9703 26.4473C37.8811 26.6815 38.2089 26.3172 38.5472 26.1767C38.2662 25.3492 38.6409 24.9641 36.7153 24.1574C38.3807 24.7507 39.1197 24.4592 39.713 23.9908C39.4788 23.3975 38.8855 22.8979 38.4015 22.7314C39.4215 22.7522 40.0981 22.2994 40.5405 21.7009C40.1658 21.2013 39.4215 20.837 38.568 20.7433C39.8275 20.5716 40.8319 19.7909 40.9464 18.8801ZM2.31505 24.9953C2.29423 24.9953 2.29423 25.0161 2.26821 25.0421C2.1277 25.0213 2.1277 24.8548 2.15372 24.7143C2.22137 24.7143 2.26821 24.6934 2.31505 24.6466L2.33587 24.6726L2.26821 24.7195C2.29423 24.8079 2.29423 24.9016 2.31505 24.9953ZM2.77303 25.9737L2.54404 25.8384C2.63772 25.7291 2.72619 25.7291 2.81987 25.7916C2.81987 25.8592 2.81987 25.9269 2.77303 25.9737ZM3.45999 24.5165C3.42877 24.5165 3.39754 24.5165 3.36632 24.5165C3.36111 24.5113 3.35591 24.5009 3.3507 24.4957C3.39234 24.4853 3.43918 24.4853 3.47561 24.4748C3.47561 24.4853 3.4652 24.5009 3.45999 24.5165ZM16.6945 41.566C16.122 41.566 15.7161 41.2069 16.0075 40.7021C16.1584 40.9311 16.4603 41.0352 16.7205 41.0612C16.6945 41.3006 16.6945 41.3683 16.6945 41.566ZM25.4012 40.7021C25.6927 41.2069 25.2867 41.566 24.7143 41.566C24.7143 41.3683 24.7143 41.3006 24.6674 41.0612C24.9328 41.0404 25.2451 40.9415 25.4012 40.7021ZM16.6737 9.80891C17.9799 9.52787 19.3122 8.79405 19.9107 8.17473C20.4051 8.20596 21.0452 8.21116 21.5292 8.17994C22.1173 8.80446 23.4288 9.52267 24.7403 9.8037C23.9805 9.8037 22.6534 9.73605 22.4868 9.54869C22.5337 10.0275 23.5485 10.5687 24.2146 10.7145C23.663 10.7821 23.153 10.7145 22.721 10.5167C22.9552 10.855 23.2258 11.11 23.6682 11.2609C23.205 11.8334 22.2474 12.2029 21.3003 12.1144C21.5344 12.3955 21.9664 12.5724 22.3411 12.5204C21.4876 13.8787 20.8579 15.2735 20.707 16.8869H20.7018V16.8921C20.5612 15.2735 19.9315 13.8787 19.0832 12.5204C19.4683 12.5672 19.8899 12.3955 20.1085 12.1144C19.1509 12.2081 18.2297 11.8334 17.7509 11.2609C18.1985 11.11 18.4639 10.855 18.6981 10.5167C18.2766 10.7145 17.7509 10.7821 17.2045 10.7145C17.8706 10.5635 18.8959 10.0275 18.9427 9.54869C18.7606 9.74125 17.4335 9.80891 16.6737 9.80891ZM4.69861 24.1678C4.57891 24.2198 4.43319 24.2823 4.3239 24.3291C4.3239 24.3187 4.3239 24.3083 4.3239 24.2979C4.4384 24.2511 4.58412 24.2094 4.69861 24.1678ZM13.0983 30.2829C13.1243 30.4443 13.1452 30.538 13.2128 30.6472C12.3125 30.7878 11.9326 31.1365 11.6047 31.7089C11.1467 32.4792 11.6255 33.4732 11.4954 33.8792C11.4017 34.1342 11.1051 34.384 10.6263 34.1602C10.8605 35.1907 12.1407 35.071 12.479 34.4985C12.5935 34.9773 12.479 35.529 12.2448 35.7371C12.6455 35.7579 12.9838 35.5966 13.192 35.2791C13.2388 35.3728 13.2388 35.5029 13.2596 35.6174C13.4834 35.5029 13.6239 35.3728 13.7176 35.2583C13.7541 35.3728 13.7957 35.6434 13.7436 35.862C13.5719 35.9765 13.3793 36.0858 13.0775 36.242C12.5987 36.4762 11.7244 36.8144 11.2248 36.8821C10.8136 36.9497 10.1006 36.7155 9.9185 36.1431C9.75196 35.5966 9.29919 35.4197 8.94009 35.7579C8.84642 35.6903 8.59141 35.6382 8.48212 35.81C8.48212 35.81 8.36763 35.5498 8.22711 35.4249C8.32079 35.1438 8.24793 34.8055 7.99292 34.691C7.9721 34.1394 7.63382 34.1394 7.51412 33.952C7.44647 33.8375 7.44647 33.6918 7.6078 33.671C7.54015 33.5669 7.39443 33.5461 7.37361 33.5461C7.42045 33.3119 7.34759 33.0204 7.03533 32.9268L4.26666 27.2124C4.4436 27.025 4.34992 26.7544 4.15216 26.6607C4.15216 26.6607 4.15216 26.6399 4.15216 26.6138C4.16777 26.567 4.17298 26.5358 4.17818 26.4994C4.25104 26.4889 4.34472 26.4681 4.42278 26.4473C4.96923 26.3172 5.82273 25.5157 6.56174 25.0109C6.30153 25.2815 5.22945 26.0622 4.75065 26.515C4.30309 26.9573 4.49044 27.3997 4.5633 27.8004L4.66738 28.0242C5.07332 28.0503 5.68222 28.2949 6.13499 27.9201C6.27551 27.7796 8.27395 25.3023 8.53937 25.0629C8.43528 25.2867 7.17585 26.8741 6.60338 27.7848C6.18183 28.4718 6.80114 28.9246 6.874 29.3253C7.32677 29.1848 7.94608 29.4554 8.27395 28.909C8.59141 28.3833 9.5594 26.5046 9.9185 25.9789C9.77798 26.3901 8.75274 28.5239 8.67988 28.7112C8.43528 29.4346 9.05459 29.5751 9.29919 30.0539C9.6739 29.7833 10.3453 29.9967 10.6055 29.3045C10.7668 28.8413 11.1779 27.2176 11.3913 26.7856C11.3653 27.2644 11.2248 27.9097 11.1311 28.6175C11.0374 29.3305 11.7036 29.3045 12.0523 29.7157C12.3905 29.4346 13.0098 29.5023 13.1035 28.8621C13.1972 28.2897 13.218 26.9001 13.218 26.9001C13.3117 26.9834 13.3585 27.0042 13.4626 27.0979C13.6916 26.8272 14.1756 26.8272 14.3369 26.5046C14.4098 26.5254 14.4306 26.5722 14.5035 26.6191C15.0291 27.4934 15.0707 29.1848 14.3369 29.7833C14.5503 29.7833 14.8157 29.7573 14.9771 29.6896C14.6544 30.3506 13.931 30.5848 13.0983 30.2829ZM18.2714 38.2769C17.8394 38.8702 17.5011 39.3021 17.2201 40.0412C16.7153 39.9943 16.8142 39.375 16.9755 39.0627C17.3138 38.4434 18.6877 37.6367 19.3799 36.83C19.0728 37.3453 18.6461 37.8137 18.2714 38.2769ZM19.765 39.375C19.484 40.4679 19.2862 42.0813 19.3799 42.8047C18.4119 42.2999 18.9583 40.3534 19.333 39.5155C19.8535 38.3497 20.2178 36.9237 20.3375 36.013C20.6393 36.7051 19.968 38.636 19.765 39.375ZM22.0289 42.8047C22.1225 42.0813 21.9352 40.4679 21.6437 39.375C21.4408 38.636 20.7746 36.7051 21.0713 36.013C21.1858 36.9237 21.5501 38.3445 22.0757 39.5155C22.4504 40.3534 22.9968 42.2999 22.0289 42.8047ZM24.4332 39.0575C24.5998 39.375 24.6934 39.9891 24.1886 40.0359C23.9076 39.2969 23.5693 38.8702 23.153 38.2717C22.7627 37.8137 22.3359 37.3401 22.0289 36.8248C22.7158 37.6367 24.0949 38.4382 24.4332 39.0575ZM24.3135 30.7045C23.0489 33.161 20.733 35.1594 20.707 35.1334C20.6809 35.1646 18.365 33.161 17.1004 30.7045C15.8358 28.2532 15.0239 24.3968 14.9823 22.5544C14.9354 20.7121 15.2997 19.9262 15.2997 19.9262C15.2997 19.9262 16.8818 19.8377 18.1465 19.4006C19.2185 19.0311 20.3843 18.0891 20.7122 17.8132C21.04 18.0891 22.2058 19.0259 23.2831 19.4006C24.5425 19.843 26.1246 19.9262 26.1246 19.9262C26.1246 19.9262 26.4837 20.7173 26.4369 22.5544C26.3848 24.3968 25.573 28.2532 24.3135 30.7045Z" fill="#706F6F"></path> <path d="M67.6289 24.9694C68.4252 24.7976 69.2943 24.6779 70.2363 24.6155C71.1783 24.5478 72.0995 24.5166 73.0154 24.5166C73.9834 24.5166 74.9671 24.5999 75.9611 24.7716C76.9604 24.9434 77.8659 25.2556 78.683 25.7136C79.5001 26.1716 80.1662 26.8013 80.6919 27.608C81.2123 28.4147 81.4778 29.4556 81.4778 30.7254C81.4778 31.9224 81.2383 32.9425 80.7648 33.7856C80.2912 34.6287 79.6562 35.3209 78.8704 35.8517C78.0845 36.3826 77.1789 36.7729 76.1641 37.0175C75.1492 37.2621 74.0979 37.387 73.0154 37.387C72.9009 37.387 72.724 37.3818 72.4898 37.3714C72.2504 37.361 72.0058 37.3506 71.7508 37.3454C71.4958 37.335 71.2459 37.3194 71.0118 37.3038C70.7724 37.2829 70.6006 37.2673 70.4861 37.2465V44.7096H67.6393V24.9694H67.6289ZM73.0987 27.0199C72.5835 27.0199 72.0891 27.0303 71.6051 27.0459C71.121 27.0667 70.7463 27.1136 70.4809 27.1864V34.738C70.5746 34.7744 70.7307 34.8005 70.9493 34.8109C71.1679 34.8213 71.3969 34.8317 71.6311 34.8525C71.8705 34.8733 72.0943 34.8785 72.3128 34.8785C72.5314 34.8785 72.698 34.8785 72.8125 34.8785C73.4942 34.8785 74.1708 34.8265 74.837 34.7224C75.5031 34.6183 76.1016 34.4205 76.6481 34.1187C77.1893 33.8168 77.6265 33.4005 77.9596 32.854C78.2927 32.3128 78.4592 31.6102 78.4592 30.7462C78.4592 29.9968 78.2979 29.3827 77.9752 28.8935C77.6525 28.4095 77.2362 28.0244 76.721 27.7433C76.2109 27.4623 75.6332 27.2697 74.9983 27.1656C74.3582 27.072 73.7232 27.0199 73.0987 27.0199Z" fill="#706F6F"></path> <path d="M82.1279 37.2463C82.1279 36.0128 82.2893 34.9043 82.6119 33.9259C82.9346 32.9474 83.4082 32.1147 84.0379 31.433C84.6625 30.7512 85.4275 30.2256 86.3331 29.8665C87.2334 29.5073 88.2639 29.3252 89.4245 29.3252C90.6371 29.3252 91.704 29.523 92.6147 29.9237C93.5255 30.3244 94.2854 30.8761 94.8943 31.5891C95.5032 32.3021 95.9508 33.1348 96.2474 34.0976C96.5441 35.0552 96.6898 36.1065 96.6898 37.2463C96.6898 38.4589 96.5232 39.5518 96.1902 40.5198C95.8571 41.4878 95.3835 42.3153 94.7642 42.9971C94.1448 43.6789 93.385 44.2045 92.4846 44.5636C91.5843 44.9227 90.5642 45.1049 89.4245 45.1049C88.1702 45.1049 87.0877 44.9071 86.1769 44.5064C85.2662 44.1056 84.5115 43.5592 83.913 42.8566C83.3145 42.154 82.867 41.3213 82.5755 40.3637C82.2737 39.4061 82.1279 38.3652 82.1279 37.2463ZM84.9747 37.2463C84.9747 37.9489 85.0528 38.6358 85.2141 39.3124C85.3755 39.989 85.6305 40.5875 85.9896 41.1235C86.3487 41.6596 86.8067 42.0811 87.3687 42.4038C87.9308 42.7265 88.623 42.8878 89.4505 42.8878C92.3753 42.8878 93.8378 41.009 93.8378 37.2515C93.8378 36.5124 93.7597 35.7994 93.5984 35.1125C93.437 34.4307 93.1872 33.827 92.8385 33.3065C92.4898 32.7861 92.0371 32.3646 91.475 32.0367C90.9129 31.714 90.2363 31.5527 89.4505 31.5527C87.9881 31.5527 86.8795 32.0211 86.1197 32.9631C85.3546 33.8946 84.9747 35.3258 84.9747 37.2463Z" fill="#706F6F"></path> <path d="M111.038 43.6789C110.372 44.1525 109.596 44.5116 108.701 44.7458C107.806 44.9852 106.869 45.1049 105.88 45.1049C104.626 45.1049 103.559 44.9123 102.674 44.5324C101.79 44.1525 101.077 43.6216 100.525 42.9399C99.9733 42.2581 99.5778 41.4306 99.328 40.4626C99.0834 39.4946 98.9585 38.4225 98.9585 37.2463C98.9585 34.7221 99.5726 32.7705 100.796 31.3913C102.019 30.0174 103.783 29.3252 106.078 29.3252C107.083 29.3252 107.957 29.4137 108.701 29.5958C109.44 29.778 110.106 30.0018 110.694 30.2672L110.018 32.401C109.508 32.1356 108.956 31.9274 108.363 31.7765C107.77 31.6255 107.124 31.5475 106.427 31.5475C103.351 31.5475 101.816 33.4471 101.816 37.2463C101.816 37.9697 101.899 38.6671 102.071 39.3384C102.242 40.015 102.513 40.6135 102.893 41.1339C103.273 41.6544 103.767 42.0811 104.376 42.4038C104.99 42.7265 105.74 42.8878 106.625 42.8878C107.416 42.8878 108.113 42.7785 108.706 42.5599C109.3 42.3414 109.794 42.0811 110.195 41.7793L111.038 43.6789Z" fill="#706F6F"></path> <path d="M124.309 43.6789C123.643 44.1525 122.867 44.5116 121.972 44.7458C121.077 44.9852 120.14 45.1049 119.151 45.1049C117.897 45.1049 116.83 44.9123 115.945 44.5324C115.061 44.1525 114.348 43.6216 113.796 42.9399C113.244 42.2581 112.849 41.4306 112.599 40.4626C112.354 39.4946 112.229 38.4225 112.229 37.2463C112.229 34.7221 112.844 32.7705 114.067 31.3913C115.29 30.0174 117.054 29.3252 119.349 29.3252C120.354 29.3252 121.228 29.4137 121.972 29.5958C122.711 29.778 123.377 30.0018 123.965 30.2672L123.289 32.401C122.779 32.1356 122.227 31.9274 121.634 31.7765C121.04 31.6255 120.395 31.5475 119.698 31.5475C116.622 31.5475 115.087 33.4471 115.087 37.2463C115.087 37.9697 115.17 38.6671 115.342 39.3384C115.513 40.015 115.784 40.6135 116.164 41.1339C116.539 41.6544 117.038 42.0811 117.652 42.4038C118.267 42.7265 119.016 42.8878 119.901 42.8878C120.692 42.8878 121.389 42.7785 121.982 42.5599C122.576 42.3414 123.07 42.0811 123.466 41.7793L124.309 43.6789Z" fill="#706F6F"></path> <path d="M137.294 36.1637L137.694 33.2025H137.382L135.987 35.992L128.982 44.7093H126.963V29.752H129.586V38.5786L129.388 41.2016H129.7L131.012 38.6671L137.876 29.752H139.927V44.7041H137.304V36.1637H137.294Z" fill="#706F6F"></path> <path d="M154.129 36.1637L154.53 33.2025H154.217L152.823 35.992L145.818 44.7093H143.798V29.752H146.416V38.5786L146.218 41.2016H146.531L147.842 38.6671L154.707 29.752H156.757V44.7041H154.134V36.1637H154.129Z" fill="#706F6F"></path> <path d="M83.7156 8.10187L84.0226 5.15619H83.8717L82.7111 7.84685L77.158 16.7099H76.393L70.5069 7.82083L69.4087 5.15619H69.2578L69.6846 8.07064V21.2794H67.3062V1.64844H69.1953L75.8778 11.6877L76.8822 13.8735H76.9447L77.8919 11.6304L84.2672 1.64844H86.2501V21.2742H83.7156V8.10187Z" fill="#706F6F" stroke="#706F6F" stroke-width="0.559211" stroke-miterlimit="10"></path> <path d="M100.708 12.9784L100.801 11.2401H100.708L99.4587 13.0357L92.5942 21.2794H91.189V7.25879H93.6298V15.8096L93.5361 17.4646H93.6558L94.8476 15.7263L101.712 7.25879H103.143V21.2794H100.703V12.9784H100.708Z" fill="#706F6F" stroke="#706F6F" stroke-width="0.559211" stroke-miterlimit="10"></path> <path d="M117.179 15.081H110.283V21.2794H107.842V7.25879H110.283V13.1189H117.179V7.25879H119.62V21.2794H117.179V15.081Z" fill="#706F6F" stroke="#706F6F" stroke-width="0.559211" stroke-miterlimit="10"></path> <path d="M138.017 24.8392H136.367L135.909 21.2794H124.319V7.25879H126.76V19.3173H133.38V7.25879H135.821V19.3173H138.017V24.8392Z" fill="#706F6F" stroke="#706F6F" stroke-width="0.559211" stroke-miterlimit="10"></path> <path d="M150.554 12.9784L150.648 11.2401H150.554L149.305 13.0357L142.44 21.2794H141.035V7.25879H143.476V15.8096L143.382 17.4646H143.507L144.699 15.7263L151.564 7.25879H152.995V21.2794H150.554V12.9784Z" fill="#706F6F" stroke="#706F6F" stroke-width="0.559211" stroke-miterlimit="10"></path> <path d="M164.553 21.3886C164.204 21.5031 163.845 21.5656 163.471 21.5864C163.096 21.6072 162.752 21.6124 162.451 21.6124C160.598 21.6124 159.177 21.0139 158.178 19.8169C157.179 18.6199 156.684 16.7724 156.684 14.2639C156.684 11.8698 157.231 10.0691 158.334 8.8513C159.432 7.63868 161.019 7.02977 163.091 7.02977C163.658 7.02977 164.147 7.0662 164.553 7.14426V1.64844H166.874V7.17028C167.239 7.11304 167.566 7.07661 167.853 7.05579C168.139 7.03497 168.41 7.02977 168.675 7.02977C170.689 7.02977 172.204 7.56582 173.218 8.64312C174.233 9.72043 174.743 11.5003 174.743 13.9828C174.743 15.159 174.608 16.2207 174.332 17.1627C174.056 18.1047 173.656 18.9062 173.125 19.5619C172.594 20.2177 171.949 20.7225 171.189 21.0764C170.424 21.4303 169.544 21.6072 168.55 21.6072C168.368 21.6072 168.097 21.5916 167.743 21.5656C167.389 21.5396 167.098 21.4875 166.874 21.4095V26.8793H164.553V21.3886ZM163.059 19.7649C163.304 19.7649 163.549 19.7545 163.793 19.7389C164.038 19.718 164.303 19.6816 164.584 19.6244V8.99702C164.34 8.96059 164.111 8.92936 163.897 8.91375C163.684 8.89293 163.424 8.88773 163.122 8.88773C161.862 8.88773 160.879 9.31969 160.176 10.194C159.474 11.0632 159.125 12.4215 159.125 14.2743C159.125 15.0601 159.203 15.7887 159.354 16.4601C159.505 17.1315 159.744 17.7196 160.072 18.214C160.395 18.7084 160.811 19.0935 161.306 19.3641C161.8 19.6296 162.388 19.7649 163.059 19.7649ZM168.212 8.88253C167.967 8.88253 167.749 8.88773 167.556 8.89814C167.363 8.90855 167.124 8.95018 166.838 9.02304V19.6764C167.041 19.7128 167.27 19.7389 167.525 19.7441C167.78 19.7545 168.061 19.7597 168.363 19.7597C169.664 19.7597 170.647 19.2653 171.308 18.2712C171.969 17.2824 172.302 15.8512 172.302 13.9828C172.302 12.3955 172.001 11.1464 171.402 10.2409C170.804 9.34051 169.742 8.88253 168.212 8.88253Z" fill="#706F6F" stroke="#706F6F" stroke-width="0.559211" stroke-miterlimit="10"></path> <path d="M178.433 7.25869H180.109L180.567 8.93971H180.687C181.155 8.28396 181.759 7.78434 182.503 7.44085C183.247 7.09736 184.095 6.92041 185.048 6.92041C187.083 6.92041 188.597 7.47207 189.591 8.5754C190.585 9.67873 191.085 11.4847 191.085 13.988C191.085 15.1641 190.918 16.2258 190.58 17.1678C190.242 18.1098 189.773 18.9113 189.159 19.5671C188.55 20.2228 187.811 20.7276 186.947 21.0815C186.084 21.4354 185.121 21.6124 184.064 21.6124C183.31 21.6124 182.716 21.5707 182.279 21.4875C181.842 21.4042 181.368 21.2585 180.858 21.0503V26.8844H178.417V7.25869H178.433ZM184.595 8.88246C183.559 8.88246 182.737 9.13227 182.139 9.62669C181.54 10.1211 181.119 10.8757 180.874 11.8854V18.8384C181.238 19.0987 181.655 19.3016 182.123 19.4421C182.591 19.5827 183.211 19.6503 183.986 19.6503C185.391 19.6503 186.505 19.1715 187.327 18.2087C188.15 17.2459 188.561 15.8303 188.561 13.9619C188.561 13.1969 188.488 12.4995 188.347 11.875C188.207 11.2505 187.978 10.7144 187.66 10.2772C187.343 9.84007 186.937 9.49658 186.443 9.25197C185.943 9.00737 185.329 8.88246 184.595 8.88246Z" fill="#706F6F" stroke="#706F6F" stroke-width="0.559211" stroke-miterlimit="10"></path> <path d="M197.376 12.6141C197.866 12.5412 198.334 12.4892 198.782 12.458C199.229 12.4319 199.656 12.4163 200.062 12.4163C201.098 12.4163 201.967 12.5256 202.669 12.739C203.372 12.9524 203.934 13.249 204.361 13.6237C204.787 13.9985 205.089 14.4408 205.261 14.9561C205.433 15.4713 205.521 16.0178 205.521 16.5954C205.521 18.2973 205.006 19.5307 203.981 20.2958C202.956 21.0608 201.29 21.4459 198.995 21.4459C197.694 21.4459 196.341 21.3887 194.936 21.2794V7.25879H197.376V12.6141ZM197.376 19.3173C198.126 19.4318 198.849 19.4839 199.541 19.4839C200.822 19.4839 201.717 19.2549 202.227 18.7969C202.737 18.3389 202.992 17.6884 202.992 16.8505C202.992 16.101 202.742 15.4869 202.243 14.9977C201.743 14.5137 200.874 14.2691 199.635 14.2691C199.286 14.2691 198.912 14.2795 198.506 14.2951C198.1 14.3159 197.725 14.368 197.376 14.4617V19.3173ZM207.931 7.25879H210.372V21.2794H207.931V7.25879Z" fill="#706F6F" stroke="#706F6F" stroke-width="0.559211" stroke-miterlimit="10"></path> </g> <defs> <clipPath id="clip0"> <rect width="210.263" height="44.7368" fill="white" transform="translate(0.368652 0.368164)"></rect> </clipPath> </defs> </svg> 