<svg width="99" height="41" xmlns="http://www.w3.org/2000/svg">
 <defs>
  <clipPath id="clip0_807_1155">
   <rect id="svg_1" x="0" y="0.5" fill="white" height="40" width="172"/>
  </clipPath>
 </defs>
 <g>
  <title>background</title>
  <rect fill="none" id="canvas_background" height="43" width="101" y="-1" x="-1"/>
 </g>
 <g>
  <title>Layer 1</title>
  <g id="svg_2" clip-path="url(#clip0_807_1155)">
   <mask height="41" width="172" y="0" x="0" maskUnits="userSpaceOnUse" id="mask0_807_1155">
    <path id="svg_3" fill="white" d="m171.626,0.5l-171.626,0l0,40l171.626,0l0,-40z"/>
   </mask>
   <g id="svg_4" mask="url(#mask0_807_1155)">
    <path id="svg_5" fill="#F6F42E" d="m10.786,0.5l18.428,0c3.751,0 5.111,0.391 6.482,1.124c1.3543,0.71614 2.4622,1.82263 3.18,3.176c0.733,1.375 1.124,2.735 1.124,6.486l0,18.428c0,3.751 -0.391,5.111 -1.124,6.482c-0.7161,1.3543 -1.8226,2.4622 -3.176,3.18c-1.375,0.733 -2.735,1.124 -6.486,1.124l-18.428,0c-3.751,0 -5.111,-0.391 -6.482,-1.124c-1.35427,-0.7161 -2.46216,-1.8226 -3.18,-3.176c-0.733,-1.375 -1.124,-2.735 -1.124,-6.486l0,-18.428c0,-3.751 0.391,-5.111 1.124,-6.486c0.71678,-1.35279 1.82321,-2.45922 3.176,-3.176c1.375,-0.733 2.735,-1.124 6.486,-1.124z"/>
    <path id="svg_6" fill="#63666A" d="m108.033,12.2272l-1.369,0l0,1.79l-0.831,0l0,-4.27599l0.831,0l0,1.74099l1.369,0l0,-1.74099l0.831,0l0,4.27599l-0.831,0l0,-1.79z"/>
    <path id="svg_7" fill="#63666A" d="m110.668,14.0172l-0.835,0l1.378,-4.27599l0.836,0l1.372,4.27599l-0.878,0l-0.308,-0.947l-1.272,0l-0.293,0.947zm0.915,-3.049l-0.427,1.43l0.915,0l-0.432,-1.43l-0.056,0z"/>
    <path id="svg_8" fill="#63666A" d="m117.695,14.8412l-0.748,0l0,-0.822l-2.7,0l0,-4.27799l0.86,0l0,3.53299l1.2,0l0,-3.53299l0.859,0l0,3.53299l0.526,0l0.003,1.567z"/>
    <path id="svg_9" fill="#63666A" d="m120.723,11.7572l0.048,-0.556l-0.027,0l-0.249,0.574l-1.201,2.242l-0.771,0l0,-4.27599l0.831,0l0,2.21699l-0.06,0.575l0.036,0l0.261,-0.592l1.201,-2.19999l0.766,0l0,4.27599l-0.835,0l0,-2.26z"/>
    <path id="svg_10" fill="#63666A" d="m124.453,14.2929c-0.266,0.0074 -0.53,-0.0506 -0.769,-0.169c-0.208,-0.1105 -0.384,-0.2714 -0.513,-0.468c-0.14,-0.2199 -0.237,-0.4642 -0.286,-0.72c-0.061,-0.3029 -0.09,-0.6112 -0.088,-0.92c-0.003,-0.3211 0.03,-0.6415 0.1,-0.955c0.055,-0.2576 0.16,-0.5021 0.308,-0.72c0.133,-0.1884 0.311,-0.3409 0.517,-0.44403c0.228,-0.10849 0.479,-0.16192 0.731,-0.156c0.265,-0.00743 0.527,0.05062 0.764,0.169c0.207,0.11113 0.382,0.27243 0.51,0.46903c0.14,0.2198 0.238,0.4635 0.289,0.719c0.063,0.3022 0.094,0.6103 0.091,0.919c0.032,0.5856 -0.11,1.1677 -0.41,1.672c-0.129,0.1941 -0.307,0.3505 -0.517,0.453c-0.228,0.1046 -0.476,0.1563 -0.727,0.151zm0,-3.789c-0.128,-0.0105 -0.256,0.021 -0.364,0.0898c-0.108,0.0687 -0.191,0.171 -0.236,0.2912c-0.121,0.3643 -0.173,0.7476 -0.156,1.131c-0.001,0.1987 0.008,0.3973 0.028,0.595c0.014,0.1634 0.05,0.3242 0.107,0.478c0.045,0.1255 0.123,0.2367 0.225,0.322c0.113,0.0838 0.252,0.1258 0.392,0.119c0.128,0.0057 0.256,-0.0252 0.367,-0.089c0.103,-0.0685 0.183,-0.165 0.232,-0.278c0.066,-0.1499 0.107,-0.3092 0.122,-0.472c0.025,-0.2231 0.037,-0.4475 0.035,-0.672c0,-0.2 -0.008,-0.4 -0.023,-0.581c-0.01,-0.1647 -0.043,-0.3271 -0.1,-0.482c-0.045,-0.1286 -0.124,-0.2426 -0.228,-0.33c-0.115,-0.0863 -0.257,-0.1295 -0.401,-0.122z"/>
    <path id="svg_11" fill="#63666A" d="m129.275,12.2272l-1.369,0l0,1.79l-0.831,0l0,-4.27599l0.831,0l0,1.74099l1.369,0l0,-1.74099l0.831,0l0,4.27599l-0.831,0l0,-1.79z"/>
    <path id="svg_12" fill="#63666A" d="m131.911,14.0172l-0.836,0l1.378,-4.27599l0.836,0l1.372,4.27599l-0.878,0l-0.3,-0.947l-1.279,0l-0.293,0.947zm0.914,-3.049l-0.426,1.43l0.915,0l-0.433,-1.43l-0.056,0z"/>
    <path id="svg_13" fill="#63666A" d="m137.94,10.5032l-0.808,0c-0.021,0.3953 -0.043,0.7557 -0.066,1.081c-0.023,0.3253 -0.053,0.6177 -0.088,0.877c-0.028,0.2291 -0.07,0.4562 -0.127,0.68c-0.042,0.1737 -0.109,0.3402 -0.2,0.494c-0.094,0.1724 -0.235,0.3143 -0.407,0.409c-0.144,0.0708 -0.303,0.1078 -0.464,0.108c-0.085,0.0011 -0.171,-0.0083 -0.254,-0.028c-0.06,-0.0116 -0.119,-0.0304 -0.175,-0.056l0.094,-0.737c0.023,0.009 0.047,0.0153 0.072,0.019c0.026,0.0038 0.053,0.0058 0.079,0.006c0.07,-0.0015 0.138,-0.0182 0.2,-0.049c0.075,-0.0373 0.139,-0.0948 0.183,-0.166c0.071,-0.1279 0.122,-0.2663 0.15,-0.41c0.048,-0.2267 0.081,-0.4561 0.1,-0.687c0.027,-0.2767 0.048,-0.6053 0.063,-0.986c0.015,-0.3807 0.029,-0.8197 0.044,-1.31699l2.463,0l0,4.36999l-0.859,0l0,-3.608z"/>
    <path id="svg_14" fill="#63666A" d="m141.276,14.1552l-0.175,0l-0.061,0c-0.1,0 -0.221,-0.009 -0.322,-0.016c-0.126,-0.009 -0.242,-0.019 -0.353,-0.03c-0.109,-0.0129 -0.218,-0.033 -0.325,-0.06l0,-4.30799l0.855,0l0,1.56099c0.02,0 0.053,-0.009 0.1,-0.015c0.047,-0.006 0.1,-0.012 0.156,-0.016l0.1,-0.008l0.068,0c0.054,0 0.111,-0.006 0.162,-0.006c0.199,-0.0005 0.398,0.0203 0.593,0.062c0.183,0.0384 0.357,0.1136 0.51,0.221c0.152,0.1106 0.273,0.2578 0.352,0.428c0.095,0.2163 0.139,0.4511 0.131,0.687c0.014,0.2108 -0.02,0.4221 -0.101,0.6174c-0.08,0.1953 -0.205,0.3694 -0.364,0.5086c-0.386,0.2724 -0.854,0.4043 -1.326,0.374zm0.044,-2.145c-0.029,0 -0.064,0 -0.107,0.006l-0.073,0.008l-0.054,0.006c-0.046,0.003 -0.082,0.011 -0.113,0.011c-0.031,0 -0.06,0.011 -0.078,0.016l0,1.3c0.061,0.0152 0.123,0.0246 0.185,0.028c0.075,0.007 0.153,0.01 0.24,0.01c0.111,0.0002 0.222,-0.0115 0.331,-0.035c0.099,-0.0209 0.192,-0.0613 0.275,-0.119c0.08,-0.0565 0.143,-0.1326 0.184,-0.221c0.047,-0.1057 0.069,-0.2205 0.065,-0.336c0.004,-0.1185 -0.02,-0.2362 -0.072,-0.343c-0.044,-0.0839 -0.108,-0.1551 -0.187,-0.207c-0.083,-0.0523 -0.176,-0.0864 -0.273,-0.1c-0.107,-0.0165 -0.215,-0.0245 -0.323,-0.024z"/>
    <path id="svg_15" fill="#63666A" d="m146.24,12.2272l-1.369,0l0,1.79l-0.831,0l0,-4.27599l0.831,0l0,1.74099l1.369,0l0,-1.74099l0.831,0l0,4.27599l-0.831,0l0,-1.79z"/>
    <path id="svg_16" fill="#63666A" d="m148.875,14.0172l-0.835,0l1.378,-4.27599l0.836,0l1.372,4.27599l-0.878,0l-0.308,-0.947l-1.272,0l-0.293,0.947zm0.916,-3.048l-0.427,1.43l0.915,0l-0.433,-1.43l-0.055,0z"/>
    <path id="svg_17" fill="#63666A" d="m153.442,14.155l-0.988,0l1.087,-1.772c-0.1,-0.0393 -0.194,-0.0903 -0.282,-0.152c-0.096,-0.0673 -0.18,-0.1497 -0.25,-0.244c-0.079,-0.1088 -0.139,-0.2298 -0.179,-0.358c-0.048,-0.1581 -0.071,-0.3228 -0.068,-0.488c-0.008,-0.2474 0.059,-0.4915 0.192,-0.7c0.121,-0.1813 0.278,-0.3347 0.463,-0.45002c0.158,-0.09924 0.333,-0.16715 0.516,-0.2c0.211,-0.03584 0.424,-0.05257 0.638,-0.05c0.07,0 0.151,0 0.24,0.007c0.089,0.007 0.186,0.01 0.281,0.019c0.095,0.009 0.2,0.019 0.284,0.031c0.084,0.0108 0.168,0.02717 0.25,0.049l0,4.30802l-0.845,0l0,-1.622l-0.413,0l-0.926,1.622zm1.018,-3.655c-0.098,0.0005 -0.196,0.0122 -0.291,0.035c-0.092,0.0199 -0.179,0.0614 -0.252,0.121c-0.074,0.0591 -0.136,0.1321 -0.182,0.215c-0.055,0.0931 -0.084,0.1997 -0.083,0.308c-0.002,0.0997 0.019,0.1985 0.061,0.289c0.041,0.0839 0.098,0.159 0.168,0.221c0.084,0.0708 0.183,0.1209 0.289,0.146c0.117,0.0308 0.237,0.0466 0.358,0.047l0.253,0l0,-1.352c-0.039,-0.007 -0.087,-0.015 -0.139,-0.02c-0.06,-0.0071 -0.121,-0.0104 -0.182,-0.01z"/>
    <path id="svg_18" fill="#63666A" d="m108.324,21.4251l0.681,0l0,1.252c-0.151,0.1051 -0.321,0.1813 -0.5,0.225c-0.205,0.0545 -0.416,0.0817 -0.629,0.081c-0.264,0.0013 -0.527,-0.0399 -0.778,-0.122c-0.243,-0.0793 -0.464,-0.2138 -0.647,-0.393c-0.2,-0.2001 -0.354,-0.4414 -0.451,-0.707c-0.119,-0.3383 -0.175,-0.6955 -0.167,-1.054c-0.011,-0.3678 0.054,-0.734 0.189,-1.076c0.11,-0.2657 0.276,-0.5046 0.486,-0.7c0.192,-0.1741 0.418,-0.305 0.664,-0.384c0.232,-0.0756 0.474,-0.1147 0.718,-0.116c0.212,-0.0037 0.423,0.0171 0.629,0.062c0.147,0.0333 0.289,0.0819 0.425,0.145l0,1.3l-0.682,0l0,-0.712c-0.132,-0.0218 -0.266,-0.0325 -0.4,-0.032c-0.154,-0.0011 -0.307,0.0299 -0.449,0.091c-0.141,0.0624 -0.266,0.1577 -0.363,0.278c-0.109,0.139 -0.19,0.298 -0.238,0.468c-0.061,0.2189 -0.091,0.4456 -0.087,0.673c-0.002,0.2081 0.025,0.4155 0.081,0.616c0.048,0.1729 0.128,0.3351 0.236,0.478c0.1,0.1317 0.23,0.2379 0.379,0.31c0.159,0.0748 0.332,0.1121 0.507,0.109c0.134,0.0008 0.268,-0.0116 0.4,-0.037l-0.004,-0.755z"/>
    <path id="svg_19" fill="#63666A" d="m112.309,20.4472l0.049,-0.557l-0.028,0l-0.249,0.575l-1.202,2.242l-0.77,0l0,-4.276l0.831,0l0,2.217l-0.06,0.574l0.036,0l0.261,-0.591l1.202,-2.2l0.764,0l0,4.276l-0.834,0l0,-2.26z"/>
    <path id="svg_20" fill="#63666A" d="m116.738,21.4251l0.681,0l0,1.252c-0.151,0.1051 -0.321,0.1814 -0.5,0.225c-0.205,0.0545 -0.416,0.0817 -0.629,0.081c-0.264,0.0014 -0.526,-0.0398 -0.777,-0.122c-0.243,-0.079 -0.465,-0.2136 -0.647,-0.393c-0.2,-0.1999 -0.354,-0.4412 -0.452,-0.707c-0.119,-0.3382 -0.176,-0.6954 -0.167,-1.054c-0.01,-0.3678 0.054,-0.7338 0.189,-1.076c0.11,-0.2657 0.276,-0.5045 0.486,-0.7c0.191,-0.1741 0.417,-0.3051 0.663,-0.384c0.232,-0.0756 0.475,-0.1148 0.719,-0.116c0.212,-0.0038 0.423,0.017 0.629,0.062c0.146,0.0335 0.288,0.0821 0.424,0.145l0,1.3l-0.681,0l0,-0.712c-0.132,-0.0218 -0.266,-0.0325 -0.4,-0.032c-0.154,-0.0009 -0.307,0.0301 -0.449,0.091c-0.141,0.0625 -0.265,0.1578 -0.362,0.278c-0.11,0.1386 -0.191,0.2977 -0.239,0.468c-0.062,0.2189 -0.091,0.4456 -0.087,0.673c-0.002,0.2081 0.026,0.4155 0.081,0.616c0.048,0.1728 0.127,0.335 0.235,0.478c0.1,0.1313 0.23,0.2374 0.378,0.31c0.159,0.0747 0.333,0.1119 0.508,0.109c0.134,0.0007 0.268,-0.0117 0.4,-0.037l-0.003,-0.755z"/>
    <path id="svg_21" fill="#63666A" d="m118.826,22.0312l0.721,0l0,-2.928l-0.6,0l0,0.74l-0.7,0l0,-1.412l3.448,0l0,1.411l-0.692,0l0,-0.739l-0.6,0l0,2.928l0.711,0l0,0.671l-2.288,0l0,-0.671z"/>
    <path id="svg_22" fill="#63666A" d="m122.661,18.4312l2.866,0l0,0.745l-2.011,0l0,1l1.854,0l0,0.745l-1.854,0l0,1.041l2.045,0l0,0.745l-2.9,0l0,-4.276z"/>
    <path id="svg_23" fill="#63666A" d="m128.998,20.4312l0.03,-0.666l-0.036,0l-0.684,1.116l-0.147,0l-0.713,-1.119l-0.031,0l0.037,0.6l0,2.345l-0.793,0l0,-4.276l0.848,0l0.732,1.185l0.02,0l0.731,-1.185l0.842,0l0,4.276l-0.836,0l0,-2.276z"/>
    <path id="svg_24" fill="#63666A" d="m131.497,22.7072l-0.836,0l1.379,-4.276l0.835,0l1.372,4.276l-0.877,0l-0.309,-0.947l-1.271,0l-0.293,0.947zm0.915,-3.048l-0.427,1.43l0.915,0l-0.433,-1.43l-0.055,0z"/>
    <path id="svg_25" fill="#63666A" d="m140.87,23.5312l-0.748,0l0,-0.822l-2.7,0l0,-4.278l0.859,0l0,3.533l1.2,0l0,-3.533l0.859,0l0,3.533l0.526,0l0.004,1.567z"/>
    <path id="svg_26" fill="#63666A" d="m144.173,20.4472l0.049,-0.557l-0.028,0l-0.248,0.575l-1.202,2.242l-0.771,0l0,-4.276l0.831,0l0,2.217l-0.06,0.574l0.036,0l0.261,-0.591l1.202,-2.2l0.765,0l0,4.276l-0.835,0l0,-2.26z"/>
    <path id="svg_27" fill="#63666A" d="m148.31,22.9832l-0.813,0l0,-0.529c-0.183,-0.0106 -0.364,-0.0487 -0.536,-0.113c-0.169,-0.0658 -0.32,-0.1723 -0.439,-0.31c-0.136,-0.1615 -0.238,-0.349 -0.3,-0.551c-0.08,-0.2705 -0.118,-0.5519 -0.112,-0.834c-0.007,-0.2781 0.033,-0.5554 0.118,-0.82c0.065,-0.1978 0.173,-0.379 0.315,-0.531c0.126,-0.1282 0.278,-0.2275 0.445,-0.291c0.164,-0.0597 0.335,-0.0934 0.509,-0.1l0,-0.473l0.813,0l0,0.468c0.174,0.0101 0.345,0.0437 0.509,0.1c0.167,0.0558 0.319,0.1488 0.444,0.272c0.143,0.1491 0.251,0.3285 0.315,0.525c0.087,0.2744 0.126,0.5614 0.118,0.849c0.007,0.2828 -0.031,0.5649 -0.112,0.836c-0.062,0.2018 -0.164,0.3891 -0.3,0.551c-0.119,0.1373 -0.271,0.2428 -0.442,0.307c-0.171,0.0636 -0.351,0.1017 -0.533,0.113l0,0.529l0.001,0.002zm-0.77,-3.407c-0.095,0.0034 -0.188,0.0304 -0.27,0.0786c-0.082,0.0482 -0.151,0.116 -0.201,0.1974c-0.115,0.2502 -0.165,0.5252 -0.147,0.8c-0.003,0.1847 0.012,0.3692 0.045,0.551c0.022,0.1207 0.065,0.2363 0.129,0.341c0.049,0.0767 0.118,0.1384 0.2,0.178c0.079,0.036 0.163,0.0596 0.249,0.07l-0.005,-2.216zm0.727,0l0,2.22c0.085,-0.011 0.168,-0.0346 0.246,-0.07c0.082,-0.0393 0.152,-0.101 0.2,-0.178c0.064,-0.1048 0.107,-0.2204 0.129,-0.341c0.033,-0.1818 0.048,-0.3663 0.045,-0.551c0.019,-0.2748 -0.032,-0.5498 -0.147,-0.8c-0.049,-0.0823 -0.118,-0.151 -0.201,-0.1999c-0.082,-0.0489 -0.176,-0.0764 -0.272,-0.0801z"/>
    <path id="svg_28" fill="#63666A" d="m151.929,22.8452l-0.854,0l0,-4.308c0.173,-0.033 0.367,-0.059 0.577,-0.078c0.21,-0.019 0.423,-0.028 0.623,-0.028c0.219,0 0.437,0.0177 0.652,0.053c0.208,0.0316 0.408,0.1033 0.589,0.211c0.178,0.1086 0.326,0.2602 0.429,0.441c0.119,0.2268 0.176,0.481 0.165,0.737c0.007,0.235 -0.042,0.4683 -0.143,0.681c-0.09,0.1817 -0.22,0.3409 -0.38,0.466c-0.161,0.1232 -0.344,0.2141 -0.539,0.268c-0.204,0.0558 -0.415,0.084 -0.627,0.084l-0.1,0c-0.053,0 -0.1,0 -0.143,0c-0.043,0 -0.1,0 -0.146,-0.008c-0.046,-0.008 -0.082,-0.008 -0.1,-0.012l0,1.5l-0.003,-0.007zm0.417,-3.68c-0.082,0 -0.162,0 -0.237,0.009c-0.075,0.009 -0.134,0.014 -0.18,0.022l0,1.411c0.025,0.0057 0.05,0.01 0.075,0.013c0.033,0 0.067,0.007 0.1,0.009l0.014,0l0.094,0l0.078,0c0.112,0.0001 0.223,-0.0107 0.333,-0.032c0.107,-0.0179 0.209,-0.0567 0.3,-0.114c0.089,-0.0579 0.161,-0.1383 0.209,-0.233c0.057,-0.1228 0.083,-0.2571 0.078,-0.392c0.004,-0.1176 -0.021,-0.2342 -0.075,-0.339c-0.048,-0.0864 -0.117,-0.1598 -0.2,-0.214c-0.082,-0.0535 -0.174,-0.0905 -0.271,-0.109c-0.105,-0.0208 -0.211,-0.0312 -0.318,-0.031z"/>
    <path id="svg_29" fill="#63666A" d="m156.866,22.9829c-0.266,0.0088 -0.53,-0.0493 -0.768,-0.169c-0.208,-0.11 -0.385,-0.271 -0.514,-0.468c-0.138,-0.2185 -0.235,-0.461 -0.285,-0.715c-0.061,-0.3041 -0.09,-0.6138 -0.088,-0.924c-0.003,-0.3215 0.03,-0.6422 0.1,-0.956c0.055,-0.2576 0.16,-0.5021 0.308,-0.72c0.133,-0.188 0.311,-0.3401 0.517,-0.443c0.228,-0.1092 0.478,-0.163 0.73,-0.157c0.265,-0.0079 0.528,0.0501 0.765,0.169c0.207,0.111 0.383,0.2723 0.511,0.469c0.14,0.2199 0.237,0.4636 0.288,0.719c0.063,0.3022 0.094,0.6103 0.091,0.919c0.033,0.5857 -0.11,1.1677 -0.41,1.672c-0.129,0.1942 -0.307,0.3505 -0.517,0.453c-0.228,0.1047 -0.477,0.1563 -0.728,0.151zm0,-3.789c-0.128,-0.0105 -0.255,0.021 -0.364,0.0898c-0.108,0.0688 -0.191,0.171 -0.236,0.2912c-0.12,0.3647 -0.173,0.7484 -0.155,1.132c-0.001,0.1983 0.008,0.3966 0.028,0.594c0.014,0.1633 0.05,0.3241 0.106,0.478c0.045,0.1257 0.123,0.2369 0.226,0.322c0.113,0.0834 0.251,0.1251 0.391,0.118c0.128,0.0057 0.254,-0.0256 0.364,-0.09c0.103,-0.0683 0.183,-0.1649 0.232,-0.278c0.065,-0.15 0.106,-0.3093 0.122,-0.472c0.025,-0.2232 0.036,-0.4475 0.034,-0.672c0,-0.2 -0.007,-0.393 -0.021,-0.581c-0.01,-0.1646 -0.044,-0.3268 -0.1,-0.482c-0.044,-0.1274 -0.122,-0.2406 -0.225,-0.328c-0.115,-0.0868 -0.258,-0.13 -0.402,-0.122z"/>
    <path id="svg_30" fill="#63666A" d="m161.12,22.8452l-0.267,0c-0.108,0 -0.223,0 -0.352,-0.009c-0.129,-0.009 -0.257,-0.016 -0.381,-0.028c-0.119,-0.0106 -0.238,-0.029 -0.354,-0.055l0,-4.23c0.078,-0.012 0.165,-0.024 0.267,-0.037c0.102,-0.013 0.2,-0.022 0.323,-0.03c0.104,-0.007 0.217,-0.013 0.355,-0.019c0.138,-0.006 0.255,-0.006 0.355,-0.006c0.197,-0.0003 0.393,0.0151 0.588,0.046c0.178,0.0265 0.351,0.0812 0.512,0.162c0.146,0.0748 0.271,0.1873 0.36,0.326c0.097,0.1577 0.146,0.3407 0.14,0.526c0,0.1079 -0.014,0.2154 -0.04,0.32c-0.026,0.1042 -0.071,0.2028 -0.132,0.291c-0.066,0.0914 -0.147,0.1703 -0.24,0.233c-0.109,0.0719 -0.23,0.1228 -0.357,0.15l0,0.037c0.12,0.0184 0.238,0.052 0.351,0.1c0.108,0.047 0.206,0.1149 0.289,0.2c0.084,0.0903 0.15,0.1963 0.194,0.312c0.05,0.1398 0.074,0.2875 0.071,0.436c0.005,0.2002 -0.045,0.3981 -0.142,0.573c-0.093,0.1612 -0.223,0.2983 -0.378,0.4c-0.166,0.1052 -0.348,0.1819 -0.539,0.227c-0.204,0.0499 -0.413,0.0751 -0.623,0.075zm-0.554,-1.914l0,1.172c0.032,0.0108 0.066,0.0171 0.1,0.019l0.029,0l0.114,0.007l0.052,0l0.021,0l0.086,0c0.06,0 0.109,0 0.145,0c0.101,0.0004 0.202,-0.0117 0.3,-0.036c0.089,-0.0191 0.175,-0.0536 0.253,-0.102c0.073,-0.05 0.134,-0.1156 0.179,-0.192c0.046,-0.0817 0.07,-0.1741 0.07,-0.268c0.008,-0.1022 -0.016,-0.2043 -0.068,-0.2927c-0.051,-0.0883 -0.129,-0.1586 -0.222,-0.2013c-0.091,-0.0437 -0.189,-0.0711 -0.289,-0.081c-0.106,-0.0148 -0.213,-0.0232 -0.32,-0.025l-0.45,0zm0.515,-1.8c-0.107,0 -0.209,0 -0.3,0.006c-0.091,0.006 -0.162,0.015 -0.215,0.023l0,1.135l0.276,0c0.053,0 0.115,0 0.2,-0.006c0.064,-0.0028 0.127,-0.0091 0.191,-0.019c0.15,-0.0439 0.291,-0.1181 0.412,-0.218c0.055,-0.0467 0.1,-0.1054 0.13,-0.1718c0.029,-0.0663 0.044,-0.1386 0.042,-0.2112c0.005,-0.0905 -0.016,-0.1806 -0.059,-0.26c-0.041,-0.0676 -0.098,-0.124 -0.165,-0.164c-0.074,-0.0417 -0.153,-0.0705 -0.236,-0.085c-0.091,-0.0163 -0.184,-0.0243 -0.276,-0.024l0,-0.005z"/>
    <path id="svg_31" fill="#63666A" d="m165.695,22.9828c-0.266,0.0081 -0.53,-0.05 -0.768,-0.169c-0.208,-0.1099 -0.385,-0.2709 -0.514,-0.468c-0.139,-0.2183 -0.235,-0.4609 -0.285,-0.715c-0.061,-0.3041 -0.09,-0.6138 -0.088,-0.924c-0.003,-0.3214 0.031,-0.6421 0.1,-0.956c0.056,-0.2575 0.16,-0.502 0.308,-0.72c0.133,-0.1881 0.31,-0.3403 0.516,-0.443c0.228,-0.1093 0.479,-0.1631 0.731,-0.157c0.265,-0.0076 0.528,0.0505 0.765,0.169c0.207,0.1113 0.383,0.2725 0.511,0.469c0.14,0.2199 0.237,0.4637 0.288,0.719c0.063,0.3023 0.094,0.6103 0.091,0.919c0.033,0.5858 -0.11,1.1679 -0.41,1.672c-0.129,0.1941 -0.307,0.3504 -0.516,0.453c-0.228,0.105 -0.477,0.1566 -0.729,0.151zm0,-3.789c-0.128,-0.0103 -0.255,0.0213 -0.364,0.0901c-0.108,0.0687 -0.191,0.1709 -0.236,0.2909c-0.12,0.3647 -0.173,0.7484 -0.155,1.132c0,0.1984 0.009,0.3966 0.028,0.594c0.014,0.1635 0.05,0.3243 0.107,0.478c0.045,0.1257 0.123,0.2369 0.225,0.322c0.113,0.0834 0.252,0.125 0.392,0.118c0.127,0.0056 0.253,-0.0256 0.363,-0.09c0.104,-0.0675 0.186,-0.1642 0.235,-0.278c0.065,-0.1499 0.107,-0.3092 0.122,-0.472c0.025,-0.2231 0.037,-0.4475 0.035,-0.672c0,-0.2 -0.007,-0.4 -0.022,-0.581c-0.01,-0.1646 -0.044,-0.3269 -0.1,-0.482c-0.045,-0.1278 -0.125,-0.241 -0.229,-0.328c-0.115,-0.0862 -0.257,-0.1294 -0.401,-0.122z"/>
    <path id="svg_32" fill="#63666A" d="m169.365,22.8451l-0.771,0l0,-4.368l0.831,0l0,2.265l-0.06,0.586l0.036,0l0.261,-0.6l1.2,-2.247l0.764,0l0,4.364l-0.832,0l0,-2.308l0.049,-0.569l-0.028,0l-0.248,0.587l-1.2,2.29l-0.002,0zm0.829,-4.649c-0.154,0.001 -0.308,-0.0117 -0.459,-0.038c-0.127,-0.021 -0.249,-0.0618 -0.362,-0.121c-0.102,-0.0549 -0.189,-0.1334 -0.254,-0.229c-0.071,-0.1059 -0.114,-0.228 -0.125,-0.355l0.753,-0.125c0.003,0.0556 0.018,0.1099 0.043,0.1595c0.025,0.0496 0.061,0.0934 0.104,0.1285c0.088,0.0603 0.193,0.0908 0.3,0.087c0.054,0.008 0.109,0.0047 0.162,-0.0099c0.053,-0.0146 0.102,-0.04 0.144,-0.0746c0.042,-0.0347 0.077,-0.0778 0.102,-0.1266c0.025,-0.0488 0.039,-0.1022 0.042,-0.1569l0.673,0.106c-0.013,0.1151 -0.052,0.2259 -0.112,0.3249c-0.06,0.0989 -0.141,0.1836 -0.237,0.2481c-0.236,0.1321 -0.504,0.1951 -0.774,0.182z"/>
    <path id="svg_33" fill="#63666A" d="m108.17,29.2588l0.03,-0.666l-0.037,0l-0.683,1.116l-0.147,0l-0.713,-1.118l-0.03,0l0.036,0.6l0,2.344l-0.793,0l0,-4.276l0.848,0l0.732,1.185l0.02,0l0.73,-1.185l0.842,0l0,4.276l-0.835,0l0,-2.276z"/>
    <path id="svg_34" fill="#63666A" d="m110.944,31.5348l-0.835,0l1.379,-4.276l0.835,0l1.372,4.276l-0.878,0l-0.308,-0.947l-1.272,0l-0.293,0.947zm0.915,-3.048l-0.426,1.43l0.914,0l-0.438,-1.43l-0.05,0z"/>
    <path id="svg_35" fill="#63666A" d="m115.79,31.5351l-0.853,0l0,-4.308c0.191,-0.0358 0.383,-0.0618 0.576,-0.078c0.208,-0.019 0.418,-0.028 0.624,-0.028c0.218,0 0.436,0.0177 0.651,0.053c0.208,0.0319 0.408,0.1036 0.589,0.211c0.177,0.1086 0.324,0.2603 0.426,0.441c0.119,0.2267 0.177,0.481 0.166,0.737c0.006,0.2348 -0.043,0.4678 -0.144,0.68c-0.09,0.1824 -0.22,0.3421 -0.38,0.467c-0.161,0.1233 -0.344,0.214 -0.539,0.267c-0.204,0.056 -0.414,0.0842 -0.626,0.084l-0.1,0c-0.045,0 -0.093,0 -0.143,0c-0.05,0 -0.09,0 -0.147,-0.009c-0.034,-0.0022 -0.067,-0.0062 -0.1,-0.012l0,1.5l0,-0.005zm0.418,-3.681c-0.08,0 -0.158,0 -0.236,0.01c-0.078,0.01 -0.135,0.013 -0.182,0.022l0,1.41c0.024,0.0067 0.049,0.0114 0.074,0.014l0.107,0.008c0.037,0 0.072,0 0.109,0l0.077,0c0.112,0.0002 0.224,-0.0102 0.334,-0.031c0.107,-0.0177 0.209,-0.0568 0.3,-0.115c0.089,-0.0571 0.161,-0.1373 0.208,-0.232c0.057,-0.1224 0.085,-0.2569 0.079,-0.392c0.004,-0.1172 -0.022,-0.2335 -0.075,-0.338c-0.048,-0.0867 -0.117,-0.1604 -0.2,-0.215c-0.085,-0.0541 -0.179,-0.0911 -0.278,-0.109c-0.104,-0.021 -0.211,-0.0317 -0.317,-0.032z"/>
    <path id="svg_36" fill="#63666A" d="m120.522,29.7508l-0.446,0l0,1.784l-0.861,0l0,-4.276l0.861,0l0,1.747l0.446,0l1.004,-1.747l0.98,0l-1.238,2.065l1.395,2.211l-1.061,0l-1.08,-1.784z"/>
    <path id="svg_37" fill="#63666A" d="m125.829,29.2748l0.049,-0.556l-0.03,0l-0.249,0.574l-1.2,2.242l-0.77,0l0,-4.276l0.831,0l0,2.218l-0.061,0.573l0.037,0l0.26,-0.591l1.203,-2.2l0.765,0l0,4.276l-0.835,0l0,-2.26z"/>
    <path id="svg_38" fill="#63666A" d="m129.034,31.5351l-0.854,0l0,-4.308c0.19,-0.0358 0.382,-0.0618 0.576,-0.078c0.208,-0.019 0.424,-0.028 0.624,-0.028c0.218,0 0.435,0.0177 0.651,0.053c0.208,0.032 0.408,0.1036 0.589,0.211c0.178,0.1086 0.326,0.2603 0.43,0.441c0.118,0.2271 0.175,0.4811 0.165,0.737c0.006,0.2348 -0.043,0.4678 -0.144,0.68c-0.09,0.1824 -0.22,0.3421 -0.38,0.467c-0.161,0.1233 -0.344,0.214 -0.539,0.267c-0.205,0.056 -0.415,0.0842 -0.627,0.084l-0.1,0c-0.045,0 -0.093,0 -0.143,0c-0.05,0 -0.09,0 -0.146,-0.009c-0.034,-0.0022 -0.067,-0.0062 -0.1,-0.012l0,1.5l-0.002,-0.005zm0.417,-3.681c-0.08,0 -0.158,0 -0.237,0.01c-0.079,0.01 -0.134,0.013 -0.18,0.022l0,1.41c0.024,0.0067 0.049,0.0114 0.074,0.014l0.106,0.008c0.037,0 0.074,0 0.109,0l0.078,0c0.111,0.0002 0.223,-0.0102 0.333,-0.031c0.106,-0.0177 0.208,-0.0568 0.3,-0.115c0.089,-0.0573 0.16,-0.1374 0.208,-0.232c0.057,-0.1224 0.084,-0.2569 0.079,-0.392c0.004,-0.1172 -0.022,-0.2335 -0.075,-0.338c-0.049,-0.0867 -0.117,-0.1605 -0.2,-0.215c-0.085,-0.0543 -0.179,-0.0914 -0.278,-0.109c-0.105,-0.021 -0.211,-0.0317 -0.317,-0.032z"/>
    <path id="svg_39" fill="#63666A" d="m134.109,31.6728c-0.266,0.0072 -0.53,-0.0512 -0.768,-0.17c-0.208,-0.1102 -0.386,-0.2712 -0.515,-0.468c-0.139,-0.2182 -0.235,-0.4604 -0.284,-0.714c-0.061,-0.3042 -0.091,-0.6138 -0.088,-0.924c-0.004,-0.3218 0.03,-0.6429 0.1,-0.957c0.055,-0.2574 0.159,-0.5016 0.307,-0.719c0.134,-0.1878 0.312,-0.3399 0.518,-0.443c0.228,-0.1089 0.478,-0.1627 0.73,-0.157c0.265,-0.0076 0.528,0.0505 0.765,0.169c0.207,0.1112 0.382,0.2724 0.511,0.469c0.139,0.22 0.237,0.4637 0.288,0.719c0.062,0.3022 0.093,0.6103 0.091,0.919c0.032,0.5856 -0.111,1.1676 -0.41,1.672c-0.13,0.1939 -0.308,0.3502 -0.517,0.453c-0.228,0.1048 -0.477,0.1564 -0.728,0.151zm0,-3.789c-0.128,-0.0104 -0.256,0.0212 -0.364,0.09c-0.108,0.0687 -0.191,0.1709 -0.236,0.291c-0.12,0.3647 -0.173,0.7483 -0.155,1.132c-0.001,0.198 0.009,0.3959 0.028,0.593c0.014,0.1636 0.05,0.3247 0.107,0.479c0.045,0.1258 0.124,0.237 0.227,0.322c0.112,0.0842 0.251,0.1263 0.391,0.119c0.128,0.0053 0.255,-0.0255 0.366,-0.089c0.102,-0.0688 0.183,-0.1657 0.232,-0.279c0.065,-0.1502 0.106,-0.3094 0.122,-0.472c0.024,-0.2232 0.035,-0.4476 0.034,-0.672c0,-0.206 -0.007,-0.4 -0.021,-0.581c-0.011,-0.1646 -0.044,-0.3268 -0.1,-0.482c-0.046,-0.128 -0.125,-0.2416 -0.229,-0.329c-0.116,-0.0862 -0.258,-0.1293 -0.402,-0.122z"/>
    <path id="svg_40" fill="#63666A" d="m138.362,31.5351l-0.268,0c-0.116,0 -0.234,0 -0.351,-0.009c-0.135,-0.005 -0.258,-0.016 -0.381,-0.028c-0.119,-0.0109 -0.237,-0.0292 -0.354,-0.055l0,-4.23c0.078,-0.012 0.168,-0.025 0.267,-0.037c0.099,-0.012 0.214,-0.023 0.324,-0.031c0.11,-0.008 0.224,-0.013 0.353,-0.018c0.108,-0.006 0.223,-0.006 0.356,-0.006c0.196,-0.0001 0.393,0.0153 0.587,0.046c0.179,0.0261 0.352,0.0812 0.513,0.163c0.146,0.0746 0.27,0.1868 0.359,0.325c0.096,0.1586 0.143,0.3418 0.136,0.527c0,0.1072 -0.014,0.2141 -0.04,0.318c-0.026,0.1042 -0.071,0.2028 -0.132,0.291c-0.066,0.0916 -0.147,0.1705 -0.241,0.233c-0.109,0.0721 -0.23,0.1229 -0.357,0.15l0,0.037c0.121,0.018 0.239,0.0516 0.351,0.1c0.111,0.0483 0.211,0.1188 0.294,0.2072c0.083,0.0883 0.148,0.1928 0.189,0.3068c0.05,0.1398 0.074,0.2876 0.071,0.436c0.005,0.2003 -0.044,0.3982 -0.142,0.573c-0.093,0.1614 -0.222,0.2986 -0.378,0.4c-0.166,0.1049 -0.348,0.1813 -0.539,0.226c-0.202,0.0497 -0.409,0.0749 -0.617,0.075zm-0.554,-1.914l0,1.172c0.032,0.0109 0.066,0.0173 0.1,0.019l0.012,0c0.045,0 0.086,0.007 0.131,0.008l0.145,0l0.012,0c0.049,0 0.1,0 0.145,0c0.101,0.0002 0.202,-0.0123 0.3,-0.037c0.09,-0.0187 0.176,-0.0529 0.255,-0.101c0.073,-0.0497 0.135,-0.1149 0.18,-0.191c0.046,-0.0823 0.07,-0.1755 0.068,-0.27c0.006,-0.1111 -0.022,-0.2214 -0.08,-0.316c-0.053,-0.0782 -0.125,-0.1415 -0.209,-0.184c-0.091,-0.0438 -0.189,-0.0716 -0.289,-0.082c-0.106,-0.0121 -0.213,-0.0181 -0.32,-0.018l-0.45,0zm0.515,-1.8c-0.126,0 -0.219,0 -0.3,0.006c-0.072,0.0032 -0.144,0.0112 -0.215,0.024l0,1.134l0.276,0c0.053,0 0.118,0 0.2,-0.007c0.064,-0.0026 0.128,-0.0086 0.191,-0.018c0.15,-0.0446 0.29,-0.1191 0.411,-0.219c0.056,-0.0464 0.1,-0.1049 0.13,-0.1711c0.03,-0.0662 0.044,-0.1383 0.042,-0.2109c0.004,-0.0903 -0.016,-0.1802 -0.058,-0.26c-0.041,-0.0675 -0.097,-0.1238 -0.165,-0.164c-0.073,-0.0422 -0.153,-0.0706 -0.236,-0.084c-0.091,-0.0168 -0.184,-0.0252 -0.276,-0.025l0,-0.005z"/>
    <path id="svg_41" fill="#63666A" d="m142.728,29.7508l-0.446,0l0,1.784l-0.86,0l0,-4.276l0.86,0l0,1.747l0.445,0l1.006,-1.747l0.98,0l-1.238,2.065l1.4,2.211l-1.067,0l-1.08,-1.784z"/>
    <path id="svg_42" fill="#63666A" d="m148.033,29.2748l0.049,-0.556l-0.03,0l-0.249,0.574l-1.199,2.242l-0.771,0l0,-4.276l0.832,0l0,2.218l-0.061,0.573l0.036,0l0.261,-0.591l1.201,-2.2l0.765,0l0,4.276l-0.834,0l0,-2.26z"/>
    <path id="svg_43" fill="#63666A" d="m29.9902,8.61569c0.5046,0.00212 0.9879,0.20407 1.344,0.56166c0.3561,0.3576 0.556,0.84165 0.556,1.34635l0,4.735l3.969,0l0,-4.735c0,-1.55814 -0.6178,-3.05268 -1.718,-4.15604c-1.1001,-1.10335 -2.5929,-1.72546 -4.151,-1.72996l-4.748,0l0,3.97799l4.748,0z"/>
    <path id="svg_44" fill="#63666A" d="m31.8942,30.5012c0,0.5039 -0.2002,0.9872 -0.5565,1.3435c-0.3563,0.3563 -0.8396,0.5565 -1.3435,0.5565l-4.752,0l0,3.96l4.748,0c1.5554,0 3.0472,-0.617 4.1482,-1.7156c1.1011,-1.0985 1.7213,-2.589 1.7248,-4.1444l0,-4.76l-3.969,0l0,4.76z"/>
    <path id="svg_45" fill="#63666A" d="m8.10472,10.5237c0.00026,-0.5046 0.20026,-0.98852 0.5563,-1.34605c0.35603,-0.35754 0.83913,-0.55959 1.34368,-0.56196l4.748,0l0,-3.97799l-4.744,0c-1.55862,0.0037 -3.05215,0.62547 -4.15296,1.72891c-1.10082,1.10343 -1.71903,2.59843 -1.71902,4.15709l0,4.735l3.968,0l0,-4.735z"/>
    <path id="svg_46" fill="#63666A" d="m10.0087,32.4022c-0.50389,0 -0.98717,-0.2002 -1.34348,-0.5565c-0.35632,-0.3563 -0.5565,-0.8396 -0.5565,-1.3435l0,-4.761l-3.972,0l0,4.76c0.00318,1.5554 0.6232,3.046 1.72404,4.1447c1.10084,1.0988 2.59259,1.716 4.14794,1.7163l4.749,0l0,-3.96l-4.749,0z"/>
    <path id="svg_47" fill="#63666A" d="m17.7132,30.0173l-8.47101,-8.479l2.80001,-2.8l5.668,5.673l10.246,-10.256l2.8,2.8l-13.043,13.062z"/>
    <path id="svg_48" fill="#63666A" d="m56.051,26.3842c0.5494,0.6384 0.8423,1.458 0.822,2.3c0.0031,0.724 -0.2024,1.4337 -0.592,2.044c-0.4418,0.6685 -1.0667,1.1958 -1.8,1.519c-0.9446,0.4133 -1.9695,0.6108 -3,0.578c-0.8735,-0.001 -1.7436,-0.1085 -2.591,-0.32c-0.7838,-0.183 -1.5339,-0.4881 -2.223,-0.904l1.274,-2.649c0.5011,0.3405 1.0534,0.5987 1.636,0.765c0.5843,0.1739 1.1904,0.2635 1.8,0.266c0.5002,0.0252 0.9974,-0.0916 1.434,-0.337c0.1661,-0.098 0.303,-0.2387 0.3962,-0.4076c0.0932,-0.1688 0.1394,-0.3596 0.1338,-0.5524c0,-0.8047 -0.631,-1.2077 -1.893,-1.209l-1.473,0l0,-2.221l2.21,-2.4l-4.88,0l0,-2.718l8.95,0l0,2.2l-2.565,2.775c0.9067,0.1486 1.7377,0.596 2.361,1.271z"/>
    <path id="svg_49" fill="#63666A" d="m70.6672,20.1382l0,12.414l-3.528,0l0,-4.841l-4.807,0l0,4.841l-3.527,0l0,-12.414l3.527,0l0,4.664l4.807,0l0,-4.664l3.528,0z"/>
    <path id="svg_50" fill="#63666A" d="m84.7372,32.5519l-3.526,0l0,-2.754l-4.862,0l0,2.754l-3.474,0l0,-6.717c-0.0039,-0.5881 0.0581,-1.1747 0.185,-1.749c0.1152,-0.516 0.3017,-1.0134 0.554,-1.478c0.2378,-0.4353 0.538,-0.8335 0.891,-1.182c0.353,-0.3451 0.755,-0.6362 1.193,-0.864c0.4587,-0.2364 0.9461,-0.4125 1.45,-0.524c0.5448,-0.1198 1.1012,-0.1788 1.659,-0.176c0.5574,-0.0028 1.1135,0.0562 1.658,0.176c0.5034,0.1118 0.9904,0.288 1.449,0.524c0.4383,0.2269 0.8406,0.5174 1.194,0.862c0.3529,0.3486 0.653,0.7468 0.891,1.182c0.2523,0.4646 0.4387,0.962 0.554,1.478c0.1263,0.574 0.188,1.1603 0.184,1.748l0,6.72zm-5.948,-9.775c-0.3288,-0.0158 -0.6573,0.0378 -0.964,0.1573c-0.3067,0.1196 -0.5847,0.3025 -0.816,0.5367c-0.4771,0.576 -0.7132,1.3141 -0.659,2.06l0,1.547l4.861,0l0,-1.547c0.0552,-0.7461 -0.181,-1.4845 -0.659,-2.06c-0.2287,-0.233 -0.5038,-0.4152 -0.8076,-0.5348c-0.3038,-0.1196 -0.6293,-0.1738 -0.9554,-0.1592z"/>
    <path id="svg_51" fill="#63666A" d="m90.4414,26.6587l0,5.893l-3.5,0l0,-12.414l3.5,0l0,5.884l0.088,0l4.361,-5.884l4.191,0l-4.786,5.993l4.922,6.42l-4.558,0l-4.218,-5.892z"/>
    <path id="svg_52" fill="#63666A" d="m53.0136,9.93115l0,6.34505l-2.137,0l0,-2.03c-0.379,0.1188 -0.773,0.1831 -1.17,0.191c-0.7769,0.0543 -1.5462,-0.1816 -2.159,-0.662c-0.2567,-0.2486 -0.4559,-0.5501 -0.5839,-0.8837c-0.128,-0.3335 -0.1816,-0.6909 -0.1571,-1.0473l0,-1.91305l2.136,0l0,1.67605c-0.0257,0.308 0.0665,0.6143 0.258,0.857c0.1036,0.0985 0.227,0.1741 0.3619,0.2217c0.135,0.0475 0.2785,0.066 0.4211,0.0543c0.3041,0.0102 0.6074,-0.0387 0.893,-0.144l0,-2.66505l2.137,0z"/>
    <path id="svg_53" fill="#63666A" d="m59.6321,14.6632l0,1.613l-5.241,0l0,-6.34505l5.124,0l0,1.61405l-3.035,0l0,0.744l2.666,0l0,1.542l-2.666,0l0,0.834l3.152,-0.002z"/>
    <path id="svg_54" fill="#63666A" d="m62.3468,15.855c-0.5351,-0.2667 -0.9835,-0.6797 -1.2931,-1.1911c-0.3096,-0.5114 -0.4677,-1.1002 -0.4559,-1.6979c-0.0118,-0.5979 0.1463,-1.1868 0.4559,-1.6984c0.3096,-0.5115 0.758,-0.9248 1.2931,-1.1916c0.5716,-0.28647 1.2037,-0.43088 1.843,-0.42104c0.5749,-0.01033 1.1456,0.1004 1.675,0.325c0.478,0.20684 0.8962,0.53084 1.216,0.94204l-1.371,1.2c-0.1613,-0.2249 -0.373,-0.4089 -0.6182,-0.5372c-0.2452,-0.1284 -0.5171,-0.1975 -0.7938,-0.2018c-0.2032,-0.0093 -0.406,0.0241 -0.5955,0.098c-0.1894,0.0738 -0.3613,0.1866 -0.5045,0.331c-0.1413,0.1557 -0.2505,0.3378 -0.3214,0.5358c-0.0709,0.1981 -0.102,0.4081 -0.0916,0.6182c-0.0106,0.2099 0.0204,0.4198 0.0913,0.6177c0.0708,0.1979 0.1802,0.3798 0.3217,0.5353c0.1434,0.1441 0.3153,0.2567 0.5047,0.3306c0.1894,0.0739 0.3922,0.1074 0.5953,0.0984c0.2764,-0.0049 0.5479,-0.0744 0.7926,-0.2031c0.2446,-0.1287 0.4558,-0.3129 0.6164,-0.5379l1.371,1.2c-0.32,0.4104 -0.7382,0.7337 -1.216,0.94c-0.5293,0.2249 -1.1,0.336 -1.675,0.326c-0.638,0.0104 -1.2691,-0.133 -1.84,-0.418z"/>
    <path id="svg_55" fill="#63666A" d="m73.563,11.5902l-1.85,0l0,4.686l-2.093,0l0,-4.686l-1.85,0l0,-1.65905l5.793,0l0,1.65905z"/>
    <path id="svg_56" fill="#63666A" d="m80.8723,9.93115l0,6.34505l-2.172,0l0,-2.338l-2,0l0,2.338l-2.173,0l0,-6.34505l2.169,0l0,2.24805l2,0l0,-2.24805l2.176,0z"/>
    <path id="svg_57" fill="#63666A" d="m85.5791,16.2762l-3.188,0l0,-6.34505l2.131,0l0,1.94905l1.332,0c0.3594,-0.0053 0.7178,0.0392 1.065,0.132c0.2877,0.0784 0.5565,0.2145 0.79,0.4c0.215,0.1745 0.3831,0.4 0.489,0.656c0.1141,0.2888 0.1699,0.5974 0.164,0.908c0.0064,0.3376 -0.0569,0.6729 -0.186,0.985c-0.1237,0.2835 -0.3153,0.5321 -0.558,0.724c-0.2625,0.2044 -0.5625,0.3555 -0.883,0.445c-0.3766,0.1026 -0.7657,0.1517 -1.156,0.146zm-1.057,-2.9l0,1.4l0.91,0c0.1018,0.0059 0.2036,-0.0101 0.2987,-0.0469c0.095,-0.0368 0.1811,-0.0936 0.2524,-0.1664c0.0713,-0.0729 0.1261,-0.1602 0.1607,-0.2561c0.0347,-0.0959 0.0484,-0.198 0.0402,-0.2996c0.0058,-0.0888 -0.0085,-0.1777 -0.042,-0.2602c-0.0334,-0.0824 -0.085,-0.1562 -0.151,-0.2158c-0.1639,-0.1168 -0.3633,-0.1727 -0.564,-0.158l-0.905,0.003zm6.559,2.9l-2.132,0l0,-6.34505l2.132,0l0,6.34505z"/>
    <path id="svg_58" fill="#63666A" d="m98.805,16.276l-2.118,0l0,-3.294l-2.191,3.294l-2.036,0l0,-6.352l2.118,0l0,3.3l2.2,-3.3l2.027,0l0,6.352zm-3.177,-6.715c-0.538,0.0466 -1.0758,-0.0913 -1.525,-0.391c-0.161,-0.14716 -0.2866,-0.32888 -0.3673,-0.53152c-0.0807,-0.20264 -0.1145,-0.42093 -0.0987,-0.63848l1.433,0c-0.014,0.15831 0.0296,0.31635 0.123,0.445c0.0591,0.05127 0.1281,0.08987 0.2028,0.11344c0.0746,0.02356 0.1533,0.03158 0.2312,0.02356c0.16,0.01487 0.3193,-0.03441 0.443,-0.137c0.0995,-0.12589 0.1471,-0.28512 0.133,-0.445l1.433,0c0.0155,0.21845 -0.0193,0.43755 -0.1019,0.6404c-0.0825,0.20286 -0.2105,0.38405 -0.3741,0.5296c-0.4524,0.29854 -0.992,0.43626 -1.532,0.391z"/>
   </g>
  </g>
 </g>
</svg>