<svg width="151" height="25" viewBox="0 0 151 25" fill="none" xmlns="http://www.w3.org/2000/svg">
<g clip-path="url(#clip0_807_1226)">
<path fill-rule="evenodd" clip-rule="evenodd" d="M12.1105 1.13319H0.237221C0.0789109 1.13319 -0.000244141 1.21234 -0.000244141 1.37065V17.8349C-0.000244141 17.9932 0.0789109 18.0723 0.237221 18.0723H4.27413C4.43244 18.0723 4.51159 17.9932 4.51159 17.8349V5.09094H10.7648C10.844 5.09094 10.9231 5.01178 11.0023 4.93263C11.4772 3.82446 11.9522 2.63713 12.4271 1.44981V1.21234C12.2688 1.21234 12.1896 1.13319 12.1105 1.13319ZM45.5139 14.1146C45.5139 14.0354 45.4347 13.9563 45.3556 13.9563H45.1181C44.1683 14.2729 42.3477 14.6687 41.0021 14.6687C38.2316 14.6687 36.886 13.9563 36.886 9.60277C36.886 6.19911 37.2818 4.53685 41.0021 4.53685C42.0311 4.53685 43.0601 4.69516 44.2474 5.09094C44.3266 5.09094 44.4849 5.09094 44.4849 4.93263C44.9598 4.06192 45.5139 3.03291 46.1471 1.68727V1.44981C46.1471 1.37065 46.068 1.2915 45.9888 1.2915C44.4057 0.816567 42.4268 0.579102 40.6854 0.579102C34.828 0.579102 32.2158 3.27037 32.2158 9.52362C32.2158 15.856 34.828 18.6264 40.6854 18.6264C42.1102 18.6264 45.039 18.3098 46.4637 17.7557C46.6221 17.6765 46.6221 17.5974 46.6221 17.5182C46.7804 17.4391 45.5139 14.1146 45.5139 14.1146ZM21.3716 0.658257C15.5933 0.658257 13.2978 3.11206 13.2978 9.60277C13.2978 16.1726 15.5141 18.6264 21.3716 18.6264C27.2291 18.6264 29.5246 16.0934 29.5246 9.60277C29.5246 3.19122 27.2291 0.658257 21.3716 0.658257ZM21.3716 14.827C18.6803 14.827 17.8888 14.1146 17.8888 9.68193C17.8888 4.93263 18.7595 4.53685 21.3716 4.53685C23.9837 4.53685 24.9336 4.93263 24.9336 9.68193C24.9336 14.1146 24.0629 14.827 21.3716 14.827Z" fill="#0065B1"/>
<path fill-rule="evenodd" clip-rule="evenodd" d="M132.98 1.13324H121.107C120.949 1.13324 120.87 1.2124 120.87 1.37071V17.8349C120.87 17.9933 120.949 18.0724 121.107 18.0724H125.144C125.302 18.0724 125.381 17.9933 125.381 17.8349V5.09099H131.635C131.714 5.09099 131.872 5.01184 131.872 4.93268C132.347 3.82451 132.822 2.63719 133.297 1.44986V1.2124C133.059 1.2124 133.059 1.13324 132.98 1.13324ZM117.941 1.2124H113.825C113.746 1.2124 113.587 1.29155 113.587 1.37071C112.954 3.90367 111.688 8.17804 109.867 12.6107L105.751 1.29155C105.751 1.21239 105.593 1.13324 105.513 1.13324H101.397C101.318 1.13324 101.239 1.2124 101.16 1.2124C101.081 1.29155 101.081 1.37071 101.16 1.44986L107.334 18.2307C106.701 19.4972 106.068 20.5262 105.593 21.6344C105.197 22.3468 104.801 23.1383 104.326 23.9299C104.247 24.009 104.326 24.0882 104.326 24.1673C104.405 24.2465 104.484 24.3257 104.564 24.3257H108.996C109.075 24.3257 109.155 24.2465 109.234 24.1673C109.946 22.7426 110.975 20.6845 111.846 18.6265C114.458 12.4524 116.595 6.75325 118.099 1.44986C118.099 1.37071 118.099 1.29155 118.02 1.2124H117.941ZM79.7089 14.1147C79.7089 14.0355 79.6298 13.9564 79.5506 13.9564H79.3132C78.3633 14.273 76.5427 14.6687 75.1971 14.6687C72.4267 14.6687 71.081 13.9564 71.081 9.60283C71.081 6.19916 71.4768 4.53691 75.1971 4.53691C76.2261 4.53691 77.2551 4.69522 78.4425 5.09099C78.6008 5.09099 78.6799 5.09099 78.6799 4.93268C79.1549 4.06198 79.7089 3.03296 80.3422 1.68733V1.44986C80.3422 1.37071 80.263 1.29155 80.1839 1.29155C78.5216 0.737465 76.5427 0.5 74.8805 0.5C69.1022 0.5 66.4901 3.19127 66.4901 9.44452C66.4901 15.7769 69.1022 18.5473 74.9596 18.5473C76.3844 18.5473 79.3132 18.2307 80.738 17.6766C80.8963 17.5975 80.8963 17.5183 80.8963 17.4392C80.8963 17.36 79.7089 14.1147 79.7089 14.1147ZM65.0653 1.2124H60.9492C60.7909 1.2124 60.7117 1.29155 60.7117 1.37071C60.0785 3.90367 58.812 8.17804 56.9915 12.6107L52.9546 1.2124C52.9546 1.13324 52.7962 1.05409 52.7171 1.05409H48.601C48.5219 1.05409 48.4427 1.13324 48.3636 1.13324C48.2844 1.21239 48.2844 1.29155 48.3636 1.37071L54.6168 18.1516C53.9836 19.418 53.3503 20.5262 52.8754 21.5552C52.4796 22.2676 52.0839 23.0592 51.6089 23.8507C51.5298 23.9299 51.6089 24.009 51.6089 24.0882C51.6881 24.1673 51.7672 24.2465 51.8464 24.2465H56.2791C56.3582 24.2465 56.4374 24.1673 56.5165 24.0882C57.2289 22.6634 58.2579 20.6054 59.1286 18.5473C61.7408 12.3733 63.8779 6.67409 65.3819 1.37071C65.3819 1.29155 65.3819 1.21239 65.3027 1.13324C65.2236 1.21239 65.1444 1.2124 65.0653 1.2124ZM150.157 1.13324H146.12C145.962 1.13324 145.883 1.2124 145.883 1.37071V14.1147C145.012 14.3521 144.141 14.4313 143.112 14.4313C140.421 14.4313 139.867 13.6397 139.867 10.0778V1.37071C139.867 1.2124 139.788 1.13324 139.629 1.13324H135.592C135.434 1.13324 135.355 1.2124 135.355 1.37071V10.5527C135.355 16.2518 137.255 18.5473 142.241 18.5473C145.012 18.5473 148.257 17.8349 150.078 17.1226C150.157 17.1226 150.236 16.9642 150.236 16.8851V1.37071C150.394 1.2124 150.315 1.13324 150.157 1.13324ZM98.1521 1.13324H85.883C85.7247 1.13324 85.6456 1.2124 85.6456 1.37071C85.329 6.91156 84.2999 12.9273 82.796 17.7558V17.9141C82.8752 17.9933 82.9543 17.9933 83.0335 17.9933H87.3078C87.387 17.9933 87.5453 17.9141 87.5453 17.8349C88.7326 14.1147 89.6825 9.1279 89.9991 5.01184H94.036V17.8349C94.036 17.9933 94.1152 18.0724 94.2735 18.0724H98.3104C98.4687 18.0724 98.5478 17.9933 98.5478 17.8349V1.37071C98.3895 1.2124 98.3104 1.13324 98.1521 1.13324Z" fill="#EE3F58"/>
</g>
<defs>
<clipPath id="clip0_807_1226">
<rect width="151" height="24" fill="white" transform="translate(0 0.5)"/>
</clipPath>
</defs>
</svg>
