<svg width="30" height="30" viewBox="0 0 30 30" fill="none" xmlns="http://www.w3.org/2000/svg">
<circle cx="15" cy="15" r="14.5" stroke="#147FB9"/>
<path d="M12.6825 21.5025C12.54 21.5025 12.3975 21.45 12.285 21.3375C12.0675 21.12 12.0675 20.76 12.285 20.5425L17.175 15.6525C17.535 15.2925 17.535 14.7075 17.175 14.3475L12.285 9.45751C12.0675 9.24001 12.0675 8.88001 12.285 8.66251C12.5025 8.44501 12.8625 8.44501 13.08 8.66251L17.97 13.5525C18.3525 13.935 18.57 14.4525 18.57 15C18.57 15.5475 18.36 16.065 17.97 16.4475L13.08 21.3375C12.9675 21.4425 12.825 21.5025 12.6825 21.5025Z" fill="#147FB9"/>
</svg>
