<svg width="210" height="33" viewBox="0 0 210 33" fill="none" xmlns="http://www.w3.org/2000/svg">
<g style="mix-blend-mode:luminosity">
<path d="M11.7602 10.869H3.74488V24.4427H0V7.39355H15.5051V24.4427H11.7602V10.869Z" fill="#FF4A37"/>
<path d="M19.1494 7.39344H22.8943V9.26229C23.6608 8.54098 24.482 7.98361 25.358 7.59016C26.234 7.19672 27.2195 7 28.3145 7C29.5409 7 30.6688 7.22951 31.6981 7.68852C32.7493 8.12568 33.6471 8.74863 34.3917 9.55738C35.1363 10.3443 35.7167 11.2842 36.1328 12.377C36.5489 13.4481 36.7569 14.6175 36.7569 15.8852C36.7569 17.1967 36.527 18.3989 36.0671 19.4918C35.6291 20.5628 35.0268 21.4918 34.2603 22.2787C33.4939 23.0437 32.5741 23.6448 31.501 24.082C30.4498 24.5191 29.3219 24.7377 28.1174 24.7377C27.0443 24.7377 26.0807 24.5738 25.2266 24.2459C24.3725 23.918 23.5951 23.459 22.8943 22.8689V31H19.1494V7.39344ZM27.559 21.2623C28.3036 21.2623 28.9934 21.1421 29.6285 20.9016C30.2855 20.6612 30.8549 20.3115 31.3367 19.8525C31.8185 19.3716 32.1908 18.8033 32.4536 18.1475C32.7383 17.4699 32.8807 16.7049 32.8807 15.8525C32.8807 15.0656 32.7602 14.3443 32.5193 13.6885C32.2784 13.0109 31.928 12.4426 31.4681 11.9836C31.0301 11.5027 30.5045 11.1311 29.8913 10.8689C29.2781 10.6066 28.5992 10.4754 27.8546 10.4754C26.7158 10.4754 25.7084 10.7486 24.8324 11.2951C23.9783 11.8415 23.3323 12.4973 22.8943 13.2623V18.4426C23.3323 19.3607 23.9564 20.0601 24.7667 20.541C25.577 21.0219 26.5078 21.2623 27.559 21.2623Z" fill="#FF4A37"/>
<path d="M38.7026 15.8852C38.7026 14.5956 38.9216 13.4153 39.3596 12.3443C39.7976 11.2514 40.4218 10.3115 41.2321 9.52459C42.0424 8.7377 43.006 8.12568 44.1229 7.68852C45.2398 7.22951 46.4771 7 47.8349 7C49.1708 7 50.3972 7.22951 51.5141 7.68852C52.6529 8.12568 53.6274 8.7377 54.4377 9.52459C55.248 10.3115 55.8722 11.2514 56.3102 12.3443C56.7701 13.4153 57 14.5956 57 15.8852C57 17.1749 56.7701 18.3661 56.3102 19.459C55.8722 20.5301 55.248 21.459 54.4377 22.2459C53.6274 23.0328 52.6529 23.6448 51.5141 24.082C50.3972 24.5191 49.1708 24.7377 47.8349 24.7377C46.499 24.7377 45.2726 24.5191 44.1557 24.082C43.0388 23.6448 42.0752 23.0328 41.2649 22.2459C40.4546 21.459 39.8195 20.5301 39.3596 19.459C38.9216 18.3661 38.7026 17.1749 38.7026 15.8852ZM42.5789 15.8852C42.5789 16.6503 42.6994 17.3607 42.9403 18.0164C43.2031 18.6721 43.5644 19.2404 44.0243 19.7213C44.4842 20.2022 45.0317 20.5847 45.6668 20.8689C46.3238 21.1311 47.0465 21.2623 47.8349 21.2623C48.6233 21.2623 49.335 21.1421 49.9701 20.9016C50.6271 20.6393 51.1856 20.2787 51.6455 19.8197C52.1054 19.3388 52.4667 18.7705 52.7295 18.1148C52.9923 17.459 53.1237 16.7158 53.1237 15.8852C53.1237 15.0546 52.9814 14.3115 52.6967 13.6557C52.4339 12.9781 52.0616 12.4098 51.5798 11.9508C51.098 11.4699 50.5395 11.1093 49.9044 10.8689C49.2693 10.6066 48.5795 10.4754 47.8349 10.4754C47.0903 10.4754 46.3895 10.6066 45.7325 10.8689C45.0974 11.1093 44.539 11.4699 44.0572 11.9508C43.5973 12.4098 43.2359 12.9781 42.9731 13.6557C42.7103 14.3115 42.5789 15.0546 42.5789 15.8852Z" fill="#FF4A37"/>
<path d="M58 20.9673H59.9776C60.7467 19.9837 61.2631 18.858 61.5268 17.5903C61.7905 16.3225 61.9223 14.8908 61.9223 13.2952V7.39355H75.6998V20.9673H78.1059V28.3444H74.6121V24.4427H61.4938V28.3444H58V20.9673ZM71.9423 20.9673V10.869H65.482V15.2296C65.482 16.2788 65.3392 17.328 65.0535 18.3771C64.7679 19.4045 64.3724 20.2679 63.867 20.9673H71.9423Z" fill="#3981F1"/>
<path d="M78.8684 15.8852C78.8684 14.5956 79.0881 13.4153 79.5276 12.3443C79.967 11.2514 80.5933 10.3115 81.4063 9.52459C82.2193 8.7377 83.1862 8.12568 84.3068 7.68852C85.4275 7.22951 86.669 7 88.0314 7C89.3717 7 90.6023 7.22951 91.7229 7.68852C92.8656 8.12568 93.8434 8.7377 94.6564 9.52459C95.4694 10.3115 96.0957 11.2514 96.5351 12.3443C96.9966 13.4153 97.2273 14.5956 97.2273 15.8852C97.2273 17.1749 96.9966 18.3661 96.5351 19.459C96.0957 20.5301 95.4694 21.459 94.6564 22.2459C93.8434 23.0328 92.8656 23.6448 91.7229 24.082C90.6023 24.5191 89.3717 24.7377 88.0314 24.7377C86.691 24.7377 85.4604 24.5191 84.3398 24.082C83.2191 23.6448 82.2523 23.0328 81.4393 22.2459C80.6262 21.459 79.989 20.5301 79.5276 19.459C79.0881 18.3661 78.8684 17.1749 78.8684 15.8852ZM82.7577 15.8852C82.7577 16.6503 82.8785 17.3607 83.1202 18.0164C83.3839 18.6721 83.7465 19.2404 84.2079 19.7213C84.6694 20.2022 85.2187 20.5847 85.856 20.8689C86.5152 21.1311 87.2403 21.2623 88.0314 21.2623C88.8224 21.2623 89.5365 21.1421 90.1738 20.9016C90.833 20.6393 91.3933 20.2787 91.8548 19.8197C92.3162 19.3388 92.6788 18.7705 92.9425 18.1148C93.2061 17.459 93.338 16.7158 93.338 15.8852C93.338 15.0546 93.1952 14.3115 92.9095 13.6557C92.6458 12.9781 92.2723 12.4098 91.7888 11.9508C91.3054 11.4699 90.7451 11.1093 90.1079 10.8689C89.4706 10.6066 88.7785 10.4754 88.0314 10.4754C87.2843 10.4754 86.5811 10.6066 85.9219 10.8689C85.2847 11.1093 84.7243 11.4699 84.2409 11.9508C83.7795 12.4098 83.4169 12.9781 83.1532 13.6557C82.8895 14.3115 82.7577 15.0546 82.7577 15.8852Z" fill="#3981F1"/>
<path d="M99.5525 7.39355H103.31V14.3116L110.726 7.39355H115.637L107.298 15.0985L115.934 24.4427H111.122L104.563 17.4263L103.31 18.6394V24.4427H99.5525V7.39355Z" fill="#3981F1"/>
<path d="M117.12 7.39355H133.271V10.869H127.074V24.4427H123.317V10.869H117.12V7.39355Z" fill="#3981F1"/>
<path d="M134.092 15.8852C134.092 14.5956 134.312 13.4153 134.752 12.3443C135.191 11.2514 135.817 10.3115 136.63 9.52459C137.443 8.7377 138.41 8.12568 139.531 7.68852C140.651 7.22951 141.893 7 143.255 7C144.596 7 145.826 7.22951 146.947 7.68852C148.09 8.12568 149.067 8.7377 149.88 9.52459C150.693 10.3115 151.32 11.2514 151.759 12.3443C152.221 13.4153 152.451 14.5956 152.451 15.8852C152.451 17.1749 152.221 18.3661 151.759 19.459C151.32 20.5301 150.693 21.459 149.88 22.2459C149.067 23.0328 148.09 23.6448 146.947 24.082C145.826 24.5191 144.596 24.7377 143.255 24.7377C141.915 24.7377 140.684 24.5191 139.564 24.082C138.443 23.6448 137.476 23.0328 136.663 22.2459C135.85 21.459 135.213 20.5301 134.752 19.459C134.312 18.3661 134.092 17.1749 134.092 15.8852ZM137.982 15.8852C137.982 16.6503 138.103 17.3607 138.344 18.0164C138.608 18.6721 138.97 19.2404 139.432 19.7213C139.893 20.2022 140.443 20.5847 141.08 20.8689C141.739 21.1311 142.464 21.2623 143.255 21.2623C144.046 21.2623 144.761 21.1421 145.398 20.9016C146.057 20.6393 146.617 20.2787 147.079 19.8197C147.54 19.3388 147.903 18.7705 148.166 18.1148C148.43 17.459 148.562 16.7158 148.562 15.8852C148.562 15.0546 148.419 14.3115 148.133 13.6557C147.87 12.9781 147.496 12.4098 147.013 11.9508C146.529 11.4699 145.969 11.1093 145.332 10.8689C144.695 10.6066 144.002 10.4754 143.255 10.4754C142.508 10.4754 141.805 10.6066 141.146 10.8689C140.509 11.1093 139.948 11.4699 139.465 11.9508C139.003 12.4098 138.641 12.9781 138.377 13.6557C138.114 14.3115 137.982 15.0546 137.982 15.8852Z" fill="#3981F1"/>
<path d="M154.747 7.39344H158.504V9.26229C159.273 8.54098 160.097 7.98361 160.976 7.59016C161.855 7.19672 162.844 7 163.943 7C165.173 7 166.305 7.22951 167.338 7.68852C168.392 8.12568 169.293 8.74863 170.04 9.55738C170.787 10.3443 171.37 11.2842 171.787 12.377C172.205 13.4481 172.413 14.6175 172.413 15.8852C172.413 17.1967 172.183 18.3989 171.721 19.4918C171.282 20.5628 170.678 21.4918 169.908 22.2787C169.139 23.0437 168.216 23.6448 167.14 24.082C166.085 24.5191 164.953 24.7377 163.745 24.7377C162.668 24.7377 161.701 24.5738 160.844 24.2459C159.987 23.918 159.207 23.459 158.504 22.8689V31H154.747V7.39344ZM163.185 21.2623C163.932 21.2623 164.624 21.1421 165.261 20.9016C165.92 20.6612 166.492 20.3115 166.975 19.8525C167.458 19.3716 167.832 18.8033 168.096 18.1475C168.381 17.4699 168.524 16.7049 168.524 15.8525C168.524 15.0656 168.403 14.3443 168.162 13.6885C167.92 13.0109 167.568 12.4426 167.107 11.9836C166.667 11.5027 166.14 11.1311 165.525 10.8689C164.909 10.6066 164.228 10.4754 163.481 10.4754C162.339 10.4754 161.328 10.7486 160.449 11.2951C159.592 11.8415 158.944 12.4973 158.504 13.2623V18.4426C158.944 19.3607 159.57 20.0601 160.383 20.541C161.196 21.0219 162.13 21.2623 163.185 21.2623Z" fill="#3981F1"/>
<path d="M174.277 15.8852C174.277 14.5956 174.497 13.4153 174.936 12.3443C175.376 11.2514 176.002 10.3115 176.815 9.52459C177.628 8.7377 178.595 8.12568 179.715 7.68852C180.836 7.22951 182.078 7 183.44 7C184.78 7 186.011 7.22951 187.132 7.68852C188.274 8.12568 189.252 8.7377 190.065 9.52459C190.878 10.3115 191.504 11.2514 191.944 12.3443C192.405 13.4153 192.636 14.5956 192.636 15.8852C192.636 17.1749 192.405 18.3661 191.944 19.459C191.504 20.5301 190.878 21.459 190.065 22.2459C189.252 23.0328 188.274 23.6448 187.132 24.082C186.011 24.5191 184.78 24.7377 183.44 24.7377C182.1 24.7377 180.869 24.5191 179.748 24.082C178.628 23.6448 177.661 23.0328 176.848 22.2459C176.035 21.459 175.398 20.5301 174.936 19.459C174.497 18.3661 174.277 17.1749 174.277 15.8852ZM178.166 15.8852C178.166 16.6503 178.287 17.3607 178.529 18.0164C178.793 18.6721 179.155 19.2404 179.617 19.7213C180.078 20.2022 180.627 20.5847 181.265 20.8689C181.924 21.1311 182.649 21.2623 183.44 21.2623C184.231 21.2623 184.945 21.1421 185.582 20.9016C186.242 20.6393 186.802 20.2787 187.263 19.8197C187.725 19.3388 188.087 18.7705 188.351 18.1148C188.615 17.459 188.747 16.7158 188.747 15.8852C188.747 15.0546 188.604 14.3115 188.318 13.6557C188.054 12.9781 187.681 12.4098 187.197 11.9508C186.714 11.4699 186.154 11.1093 185.516 10.8689C184.879 10.6066 184.187 10.4754 183.44 10.4754C182.693 10.4754 181.99 10.6066 181.331 10.8689C180.693 11.1093 180.133 11.4699 179.65 11.9508C179.188 12.4098 178.826 12.9781 178.562 13.6557C178.298 14.3115 178.166 15.0546 178.166 15.8852Z" fill="#3981F1"/>
<path d="M194.97 7.39355H202.287C204.682 7.39355 206.484 7.73235 207.693 8.40996C208.901 9.08755 209.506 10.2569 209.506 11.9181C209.506 12.705 209.33 13.3717 208.978 13.9181C208.627 14.4646 208.165 14.9564 207.594 15.3935C208.407 15.6996 209.011 16.2132 209.407 16.9345C209.802 17.634 210 18.4427 210 19.3608C210 21.0657 209.396 22.3444 208.187 23.1968C206.979 24.0274 205.276 24.4427 203.078 24.4427H194.97V7.39355ZM198.728 17.3935V21.0657H202.716C203.836 21.0657 204.682 20.9236 205.254 20.6394C205.825 20.3553 206.111 19.8963 206.111 19.2624C206.111 18.5848 205.836 18.1039 205.287 17.8198C204.759 17.5356 203.935 17.3935 202.815 17.3935H198.728ZM198.728 10.7706V14.1476H203.144C203.913 14.1476 204.518 14.0056 204.957 13.7214C205.397 13.4373 205.616 13.0001 205.616 12.4099C205.616 11.7105 205.32 11.2624 204.726 11.0657C204.155 10.869 203.309 10.7706 202.188 10.7706H198.728Z" fill="#3981F1"/>
</g>
</svg>
