<svg width="170" height="65" viewBox="0 0 170 65" fill="none" xmlns="http://www.w3.org/2000/svg">
<g style="mix-blend-mode:luminosity" clip-path="url(#clip0_807_1229)">
<path d="M76.2404 58.3452V57.1472H77.3053V59.0773H78.4701V60.1422H77.3053V63.1373C77.3053 63.337 77.3719 63.5366 77.505 63.6697C77.6381 63.8029 77.8045 63.8694 78.0042 63.8694C78.104 63.8694 78.1706 63.8694 78.2704 63.8361C78.3702 63.8029 78.4368 63.8029 78.5034 63.7696L78.6032 63.7363V64.8012C78.3702 64.8678 78.104 64.9343 77.7712 64.9343C76.673 64.9343 76.1073 64.3353 76.1406 63.1373V60.1422H75.0757V59.0773H75.6747C76.0408 59.0773 76.2404 58.8444 76.2404 58.3452Z" fill="#6CB2E3"/>
<path d="M83.1956 60.1083C83.0292 60.075 82.8628 60.0418 82.6632 60.0418C82.2306 60.0418 81.8645 60.1749 81.5983 60.4744C81.332 60.7739 81.1989 61.1732 81.1989 61.7057V64.8338H80.0342V59.0434H81.1989V59.6424L81.2655 59.5759C81.2988 59.5426 81.3653 59.476 81.4984 59.4095C81.5983 59.3429 81.7314 59.2431 81.8645 59.1765C81.9976 59.11 82.164 59.0434 82.3304 59.0101C82.4968 58.9769 82.7297 58.9436 82.9294 58.9436H83.2289V60.1083H83.1956Z" fill="#6CB2E3"/>
<path d="M88.1213 64.8673V64.2683L88.0548 64.3349C88.0215 64.3681 87.9549 64.4347 87.8551 64.5013C87.7553 64.5678 87.6222 64.6677 87.489 64.7342C87.3559 64.8008 87.1895 64.8673 87.0232 64.9006C86.8235 64.9672 86.6238 64.9672 86.4241 64.9672C85.7253 64.9672 85.1928 64.7342 84.7602 64.2683C84.3276 63.8024 84.1279 63.2034 84.1279 62.438V59.0769H85.2927V62.438C85.2927 62.8373 85.4258 63.2034 85.692 63.4696C85.9582 63.7359 86.2577 63.869 86.6571 63.869C87.0897 63.869 87.4558 63.7359 87.722 63.4364C87.9882 63.1369 88.1213 62.7375 88.1213 62.2051V59.0769H89.2861V64.8673H88.1213Z" fill="#6CB2E3"/>
<path d="M93.4453 58.9435C93.645 58.9435 93.8779 58.9768 94.0776 59.01C94.2773 59.0766 94.4436 59.1432 94.5768 59.2097C94.7099 59.2763 94.843 59.3761 94.9428 59.4427C95.0426 59.5092 95.1425 59.5758 95.1758 59.6423L95.2423 59.7422V56.4143H96.4071V64.8338H95.2423V64.1682C95.1758 64.2347 95.1092 64.3013 95.0094 64.4011C94.9095 64.501 94.7099 64.6008 94.3771 64.7672C94.0443 64.9336 93.7448 64.9669 93.412 64.9669C92.6799 64.9669 92.0143 64.6674 91.4819 64.1016C90.9494 63.5026 90.6499 62.8038 90.6499 61.9718C90.6499 61.1399 90.9161 60.441 91.4819 59.842C92.0476 59.243 92.6799 58.9435 93.4453 58.9435ZM92.3804 63.3362C92.7132 63.7023 93.1125 63.902 93.5784 63.902C94.011 63.902 94.4104 63.7023 94.7764 63.3362C95.1092 62.9702 95.3089 62.5043 95.3089 61.9718C95.3089 61.4394 95.1425 60.9735 94.7764 60.6074C94.4436 60.2413 94.0443 60.0417 93.5784 60.0417C93.1458 60.0417 92.7464 60.2413 92.3804 60.6074C92.0476 60.9735 91.8479 61.4394 91.8479 61.9718C91.8479 62.5043 92.0143 62.9702 92.3804 63.3362Z" fill="#6CB2E3"/>
<path d="M100.999 64.8673H99.8343L97.5381 59.0769H98.7694L100.433 63.3032L102.097 59.0769H103.329L100.999 64.8673Z" fill="#6CB2E3"/>
<path d="M107.821 59.7423L107.056 60.5077C107.022 60.4744 106.989 60.4411 106.922 60.3746C106.856 60.308 106.756 60.2414 106.556 60.1416C106.357 60.0418 106.19 60.0085 105.991 60.0085C105.724 60.0085 105.525 60.0751 105.392 60.1749C105.258 60.308 105.159 60.4411 105.159 60.6075C105.159 60.7739 105.225 60.907 105.358 61.0401C105.491 61.14 105.691 61.2398 105.891 61.3063C106.09 61.3729 106.323 61.4395 106.59 61.5393C106.823 61.6391 107.056 61.739 107.288 61.8388C107.521 61.9386 107.688 62.105 107.821 62.338C107.954 62.5709 108.021 62.8371 108.021 63.1699C108.021 63.6691 107.821 64.1017 107.422 64.4345C107.022 64.7673 106.523 64.967 105.891 64.967C105.625 64.967 105.358 64.9337 105.092 64.8671C104.826 64.8006 104.626 64.7008 104.46 64.6009C104.293 64.5011 104.16 64.4012 104.027 64.3014C103.894 64.2016 103.828 64.1017 103.761 64.0352L103.661 63.9353L104.427 63.1699C104.46 63.2365 104.526 63.3031 104.593 63.3696C104.659 63.4362 104.826 63.5693 105.092 63.7024C105.325 63.8355 105.591 63.9021 105.858 63.9021C106.157 63.9021 106.423 63.8355 106.556 63.7024C106.723 63.5693 106.789 63.4029 106.789 63.1699C106.789 63.0035 106.723 62.8704 106.59 62.7373C106.457 62.6375 106.257 62.5376 106.057 62.4711C105.858 62.4045 105.625 62.338 105.358 62.2381C105.125 62.1383 104.892 62.0385 104.659 61.9386C104.427 61.8388 104.26 61.6724 104.127 61.4395C103.994 61.2065 103.927 60.9403 103.927 60.6075C103.927 60.1749 104.127 59.7755 104.493 59.4428C104.859 59.11 105.358 58.9436 105.924 58.9436C106.157 58.9436 106.357 58.9769 106.59 59.0101C106.823 59.0434 106.989 59.1433 107.122 59.2098C107.255 59.2764 107.388 59.3762 107.488 59.4428C107.588 59.5093 107.655 59.5759 107.721 59.6424L107.821 59.7423Z" fill="#6CB2E3"/>
<path d="M114.611 62.4045H110.185C110.251 62.8038 110.451 63.1699 110.784 63.4694C111.116 63.7689 111.516 63.902 111.982 63.902C112.314 63.902 112.614 63.8354 112.914 63.669C113.213 63.5027 113.413 63.3695 113.513 63.2364L113.679 63.0035L114.444 63.7689C114.411 63.8022 114.378 63.8354 114.344 63.902C114.311 63.9686 114.178 64.0684 114.045 64.2015C113.879 64.3346 113.712 64.4677 113.546 64.5676C113.379 64.6674 113.146 64.7672 112.847 64.8671C112.581 64.9669 112.281 65.0002 111.982 65.0002C111.183 65.0002 110.484 64.7007 109.918 64.1017C109.353 63.5027 109.053 62.7705 109.053 61.9386C109.053 61.1399 109.353 60.4411 109.918 59.842C110.484 59.2763 111.15 58.9768 111.948 58.9768C112.747 58.9768 113.413 59.243 113.945 59.7755C114.478 60.3079 114.744 60.9735 114.744 61.8055L114.611 62.4045ZM111.882 59.9752C111.449 59.9752 111.083 60.1083 110.817 60.3745C110.551 60.6407 110.318 60.9735 110.218 61.3729H113.479C113.413 60.9735 113.246 60.6407 112.947 60.3745C112.647 60.1083 112.315 59.9752 111.882 59.9752Z" fill="#6CB2E3"/>
<path d="M123.263 64.867V61.5059C123.263 61.04 123.163 60.6739 122.93 60.441C122.731 60.208 122.431 60.0749 122.065 60.0749C121.699 60.0749 121.4 60.2413 121.133 60.5408C120.9 60.8403 120.767 61.2397 120.767 61.7721V64.9003H119.603V61.5392C119.603 61.0733 119.503 60.7072 119.27 60.4743C119.07 60.2413 118.771 60.1082 118.404 60.1082C118.038 60.1082 117.739 60.2746 117.473 60.5741C117.24 60.8736 117.107 61.273 117.107 61.8054V64.9336H115.942V59.1431H117.107V59.7422C117.14 59.6756 117.206 59.609 117.306 59.5425C117.373 59.4759 117.573 59.3428 117.839 59.2097C118.105 59.0766 118.371 59.01 118.671 59.01C118.904 59.01 119.103 59.0433 119.303 59.1099C119.503 59.1764 119.669 59.243 119.802 59.3428C119.935 59.4427 120.035 59.5425 120.135 59.6423C120.235 59.7422 120.301 59.8087 120.335 59.8753L120.401 59.9751C120.401 59.9418 120.434 59.9086 120.468 59.8753C120.501 59.842 120.568 59.7422 120.701 59.6423C120.834 59.5425 120.967 59.4427 121.1 59.3428C121.233 59.243 121.433 59.1764 121.632 59.1099C121.865 59.0433 122.098 59.01 122.331 59.01C122.997 59.01 123.496 59.2097 123.895 59.6423C124.261 60.0749 124.461 60.7072 124.461 61.5392V64.9003H123.263V64.867Z" fill="#6CB2E3"/>
<path d="M127.223 63.6355C127.39 63.8019 127.456 63.9683 127.456 64.2013C127.456 64.4009 127.39 64.6006 127.223 64.7337C127.057 64.9001 126.89 64.9667 126.691 64.9667C126.491 64.9667 126.291 64.9001 126.158 64.7337C125.992 64.5673 125.925 64.4009 125.925 64.2013C125.925 64.0016 125.992 63.8019 126.158 63.6355C126.325 63.4691 126.491 63.4026 126.691 63.4026C126.89 63.4026 127.057 63.5024 127.223 63.6355Z" fill="#6CB2E3"/>
<path d="M131.982 60.1083C131.815 60.075 131.649 60.0418 131.449 60.0418C131.017 60.0418 130.651 60.1749 130.384 60.4744C130.118 60.7739 129.985 61.1732 129.985 61.7057V64.8338H128.82V59.0434H129.985V59.6424L130.052 59.5759C130.085 59.5426 130.151 59.476 130.285 59.4095C130.384 59.3429 130.518 59.2431 130.651 59.1765C130.784 59.11 130.95 59.0434 131.117 59.0101C131.283 58.9769 131.516 58.9436 131.716 58.9436H132.015V60.1083H131.982Z" fill="#6CB2E3"/>
<path d="M136.94 64.8673V64.2683L136.873 64.3349C136.84 64.3681 136.773 64.4347 136.673 64.5013C136.574 64.5678 136.441 64.6677 136.307 64.7342C136.174 64.8008 136.008 64.8673 135.842 64.9006C135.642 64.9672 135.442 64.9672 135.242 64.9672C134.544 64.9672 134.011 64.7342 133.579 64.2683C133.146 63.8024 132.946 63.2034 132.946 62.438V59.0769H134.111V62.438C134.111 62.8373 134.244 63.2034 134.51 63.4696C134.777 63.7359 135.076 63.869 135.475 63.869C135.908 63.869 136.274 63.7359 136.54 63.4364C136.807 63.1369 136.94 62.7375 136.94 62.2051V59.0769H138.104V64.8673H136.94Z" fill="#6CB2E3"/>
<path d="M20.2661 41.7715V62.9365C20.2661 64.2344 21.6638 65.0331 22.7953 64.3675L40.3663 53.785C41.4312 53.1527 41.4312 51.5886 40.3663 50.9563L22.7953 40.3738C21.6971 39.7082 20.2661 40.5069 20.2661 41.7715Z" fill="#E54A1E"/>
<path d="M20.2661 1.63793V22.803C20.2661 24.1008 21.6638 24.8995 22.7953 24.234L40.3663 13.6514C41.4312 13.0191 41.4312 11.455 40.3663 10.8228L22.7953 0.240238C21.6971 -0.425329 20.2661 0.373356 20.2661 1.63793Z" fill="#E54A1E"/>
<path d="M0 21.7046V42.8696C0 44.1675 1.39769 44.9662 2.52916 44.3006L20.1001 33.7181C21.1651 33.0858 21.1651 31.5217 20.1001 30.8894L2.52916 20.3069C1.39769 19.6413 0 20.44 0 21.7046Z" fill="#E54A1E"/>
<path d="M40.5664 21.7046V42.8696C40.5664 44.1675 41.9641 44.9662 43.0956 44.3006L60.6666 33.7181C61.7315 33.0858 61.7315 31.5217 60.6666 30.8894L43.0956 20.3069C41.9641 19.6413 40.5664 20.44 40.5664 21.7046Z" fill="#E54A1E"/>
<path d="M84.8256 14.3513C85.7241 14.8172 86.423 15.4495 86.9221 16.3147C87.4213 17.1467 87.6543 18.145 87.6543 19.3098C87.6543 20.4413 87.4213 21.4396 86.9221 22.3048C86.423 23.1701 85.7241 23.8024 84.8256 24.2683C83.9271 24.7342 82.8289 24.9338 81.5976 24.9338H78.8022V29.1935H75.5742V13.6857H81.6309C82.8622 13.6525 83.9271 13.8854 84.8256 14.3513ZM83.6276 21.2732C84.1268 20.8073 84.393 20.1418 84.393 19.2765C84.393 18.4113 84.1268 17.7457 83.6276 17.2798C83.1284 16.8139 82.3963 16.581 81.3979 16.581H78.7689V21.9721H81.3979C82.3963 21.9721 83.1284 21.7391 83.6276 21.2732Z" fill="#004A97"/>
<path d="M99.0357 25.832H92.5464L91.3151 29.1598H88.0205L94.2436 13.6521H97.4383L103.695 29.1598H100.3L99.0357 25.832ZM98.0373 23.1031L95.8409 17.1796L93.6446 23.1031H98.0373Z" fill="#004A97"/>
<path d="M106.024 13.6521H117.273V16.514H109.219V19.7087H113.079C114.777 19.7087 116.041 20.1081 116.94 20.8735C117.838 21.6722 118.271 22.7704 118.271 24.2679C118.271 25.832 117.772 27.03 116.807 27.862C115.808 28.7272 114.444 29.1598 112.647 29.1598H106.024V13.6521ZM112.447 26.4975C113.279 26.4975 113.911 26.3311 114.344 25.9651C114.777 25.599 115.01 25.0666 115.01 24.3677C115.01 23.0033 114.144 22.3377 112.447 22.3377H109.219V26.4975H112.447Z" fill="#004A97"/>
<path d="M123.961 28.3944C122.796 27.6956 121.898 26.7305 121.232 25.5325C120.567 24.3012 120.234 22.9368 120.234 21.4392C120.234 19.9417 120.567 18.544 121.232 17.346C121.898 16.1147 122.796 15.1829 123.961 14.484C125.126 13.7852 126.424 13.4524 127.888 13.4524C129.352 13.4524 130.65 13.7852 131.781 14.484C132.913 15.1829 133.845 16.148 134.51 17.346C135.176 18.5773 135.509 19.9417 135.509 21.4392C135.509 22.9368 135.176 24.3344 134.51 25.5325C133.845 26.7638 132.946 27.6956 131.781 28.3944C130.617 29.0933 129.319 29.426 127.888 29.426C126.424 29.426 125.126 29.06 123.961 28.3944ZM130.118 25.7321C130.783 25.2995 131.316 24.7338 131.682 23.9684C132.048 23.203 132.247 22.371 132.247 21.4059C132.247 20.4409 132.048 19.5756 131.682 18.8435C131.316 18.0781 130.783 17.5124 130.118 17.0798C129.452 16.6471 128.72 16.4475 127.888 16.4475C127.056 16.4475 126.324 16.6471 125.658 17.0798C124.993 17.5124 124.46 18.0781 124.094 18.8435C123.728 19.6089 123.528 20.4409 123.528 21.4059C123.528 22.371 123.728 23.2363 124.094 23.9684C124.46 24.7338 124.993 25.2995 125.658 25.7321C126.324 26.1648 127.056 26.3644 127.888 26.3644C128.687 26.3644 129.452 26.1648 130.118 25.7321Z" fill="#004A97"/>
<path d="M148.953 16.5806H144.493V29.1598H141.299V16.5806H136.839V13.6521H148.953V16.5806Z" fill="#004A97"/>
<path d="M160.102 25.832H153.612L152.381 29.1598H149.086L155.309 13.6521H158.504L164.761 29.1598H161.366L160.102 25.832ZM159.07 23.1031L156.874 17.1796L154.677 23.1031H159.07Z" fill="#004A97"/>
<path d="M84.7265 36.1145C85.625 36.5804 86.3239 37.2127 86.823 38.078C87.3222 38.9099 87.5552 39.9083 87.5552 41.073C87.5552 42.2045 87.3222 43.2028 86.823 44.0681C86.3239 44.9333 85.625 45.5656 84.7265 46.0315C83.828 46.4974 82.7298 46.6971 81.4985 46.6971H78.7031V50.9567H75.4751V35.449H81.5318C82.7631 35.449 83.828 35.6486 84.7265 36.1145ZM83.5617 43.0365C84.0609 42.5706 84.3271 41.905 84.3271 41.0397C84.3271 40.1745 84.0609 39.5089 83.5617 39.043C83.0626 38.5771 82.3304 38.3442 81.3321 38.3442H78.7031V43.7353H81.3321C82.2972 43.7353 83.0293 43.5023 83.5617 43.0365Z" fill="#004A97"/>
<path d="M93.5451 50.1583C92.3803 49.4594 91.4818 48.4944 90.8162 47.2963C90.1507 46.065 89.8179 44.7006 89.8179 43.2031C89.8179 41.6723 90.1507 40.3079 90.8162 39.1099C91.4818 37.8786 92.3803 36.9468 93.5451 36.2479C94.7098 35.5491 96.0076 35.2163 97.4719 35.2163C98.9361 35.2163 100.234 35.5491 101.365 36.2479C102.53 36.9468 103.429 37.9118 104.094 39.1099C104.76 40.3412 105.093 41.7056 105.093 43.2031C105.093 44.7339 104.76 46.0983 104.094 47.2963C103.429 48.5276 102.53 49.4594 101.365 50.1583C100.201 50.8571 98.9029 51.1899 97.4719 51.1899C96.0076 51.1899 94.7098 50.8571 93.5451 50.1583ZM99.7016 47.5293C100.367 47.0967 100.9 46.5309 101.266 45.7655C101.632 45.0001 101.831 44.1682 101.831 43.2031C101.831 42.238 101.632 41.3728 101.266 40.6407C100.9 39.8753 100.367 39.3095 99.7016 38.8769C99.036 38.4443 98.3039 38.2446 97.4719 38.2446C96.6399 38.2446 95.9078 38.4443 95.2423 38.8769C94.5767 39.3095 94.0442 39.8753 93.6782 40.6407C93.3121 41.4061 93.1124 42.238 93.1124 43.2031C93.1124 44.1682 93.3121 45.0334 93.6782 45.7655C94.0442 46.5309 94.5767 47.0967 95.2423 47.5293C95.9078 47.9619 96.6399 48.1616 97.4719 48.1616C98.2706 48.1616 99.036 47.9286 99.7016 47.5293Z" fill="#004A97"/>
<path d="M111.216 50.1914C110.051 49.4926 109.153 48.5608 108.52 47.3295C107.855 46.0982 107.522 44.7338 107.522 43.203C107.522 41.6721 107.855 40.2745 108.52 39.0764C109.186 37.8451 110.084 36.9133 111.216 36.2145C112.381 35.5156 113.645 35.1829 115.109 35.1829C116.307 35.1829 117.406 35.4158 118.404 35.8817C119.369 36.3476 120.201 37.0465 120.867 37.9117L118.803 40.0415C117.872 38.8435 116.674 38.2112 115.309 38.2112C114.444 38.2112 113.678 38.4109 113.013 38.8435C112.347 39.2761 111.815 39.8418 111.416 40.6072C111.049 41.3726 110.85 42.2046 110.85 43.1697C110.85 44.1347 111.049 45 111.416 45.7321C111.782 46.4975 112.314 47.0632 113.013 47.4959C113.678 47.9285 114.477 48.1282 115.309 48.1282C116.707 48.1282 117.872 47.5291 118.803 46.2978L120.867 48.4277C120.201 49.3262 119.369 50.025 118.404 50.4909C117.406 50.9568 116.307 51.1898 115.109 51.1898C113.645 51.1898 112.347 50.857 111.216 50.1914Z" fill="#004A97"/>
<path d="M126.424 50.1914C125.26 49.4926 124.361 48.5608 123.729 47.3295C123.063 46.0982 122.73 44.7338 122.73 43.203C122.73 41.6721 123.063 40.2745 123.729 39.0764C124.394 37.8451 125.293 36.9133 126.424 36.2145C127.589 35.5156 128.854 35.1829 130.318 35.1829C131.516 35.1829 132.614 35.4158 133.613 35.8817C134.578 36.3476 135.41 37.0465 136.075 37.9117L134.012 40.0415C133.08 38.8435 131.882 38.2112 130.518 38.2112C129.652 38.2112 128.887 38.4109 128.221 38.8435C127.556 39.2761 127.023 39.8418 126.624 40.6072C126.258 41.3726 126.058 42.2046 126.058 43.1697C126.058 44.1347 126.258 45 126.624 45.7321C126.99 46.4975 127.523 47.0632 128.221 47.4959C128.887 47.9285 129.686 48.1282 130.518 48.1282C131.915 48.1282 133.08 47.5291 134.012 46.2978L136.075 48.4277C135.41 49.3262 134.578 50.025 133.613 50.4909C132.614 50.9568 131.516 51.1898 130.318 51.1898C128.854 51.1898 127.556 50.857 126.424 50.1914Z" fill="#004A97"/>
<path d="M139.037 35.449H142.231V45.5656L148.887 35.449H151.915V50.9567H148.754V40.8734L142.098 50.9567H139.037V35.449Z" fill="#004A97"/>
<path d="M156.308 35.449H159.502V45.5656L166.158 35.449H169.186V50.9567H165.992V40.8734L159.336 50.9567H156.274V35.449H156.308Z" fill="#004A97"/>
</g>
<defs>
<clipPath id="clip0_807_1229">
<rect width="170" height="65" fill="white"/>
</clipPath>
</defs>
</svg>
