<svg width="40" height="40" viewBox="0 0 40 40" fill="none" xmlns="http://www.w3.org/2000/svg">
<rect x="0.5" y="0.5" width="39" height="39" rx="19.5" stroke="#147FB9"/>
<path d="M20.6265 19.3C20.6028 19.3 20.5869 19.3 20.5632 19.3C20.5236 19.2929 20.4682 19.2929 20.4207 19.3C18.1249 19.2357 16.3911 17.6071 16.3911 15.6C16.3911 13.5571 18.2357 11.8929 20.4999 11.8929C22.764 11.8929 24.6086 13.5571 24.6086 15.6C24.6007 17.6071 22.859 19.2357 20.6503 19.3C20.6424 19.3 20.6344 19.3 20.6265 19.3ZM20.4999 12.9643C18.8928 12.9643 17.5786 14.15 17.5786 15.6C17.5786 17.0286 18.8136 18.1786 20.389 18.2286C20.4286 18.2214 20.5394 18.2214 20.6424 18.2286C22.194 18.1643 23.4132 17.0143 23.4211 15.6C23.4211 14.15 22.1069 12.9643 20.4999 12.9643Z" fill="#147FB9"/>
<path d="M20.6345 27.1071C19.0829 27.1071 17.5233 26.75 16.3437 26.0357C15.2433 25.3786 14.6416 24.4786 14.6416 23.5C14.6416 22.5214 15.2433 21.6143 16.3437 20.95C18.7187 19.5286 22.5662 19.5286 24.9254 20.95C26.0179 21.6071 26.6274 22.5071 26.6274 23.4857C26.6274 24.4643 26.0258 25.3714 24.9254 26.0357C23.7379 26.75 22.1862 27.1071 20.6345 27.1071ZM17.0008 21.85C16.2408 22.3071 15.8291 22.8929 15.8291 23.5071C15.8291 24.1143 16.2487 24.7 17.0008 25.15C18.972 26.3429 22.297 26.3429 24.2683 25.15C25.0283 24.6929 25.4399 24.1071 25.4399 23.4929C25.4399 22.8857 25.0204 22.3 24.2683 21.85C22.297 20.6643 18.972 20.6643 17.0008 21.85Z" fill="#147FB9"/>
</svg>
