<svg width="40" height="40" viewBox="0 0 40 40" fill="none" xmlns="http://www.w3.org/2000/svg">
<rect x="0.5" y="0.5" width="39" height="39" rx="19.5" stroke="#147FB9"/>
<path d="M19.625 27.3125C15.3875 27.3125 11.9375 23.8625 11.9375 19.625C11.9375 15.3875 15.3875 11.9375 19.625 11.9375C23.8625 11.9375 27.3125 15.3875 27.3125 19.625C27.3125 23.8625 23.8625 27.3125 19.625 27.3125ZM19.625 13.0625C16.0025 13.0625 13.0625 16.01 13.0625 19.625C13.0625 23.24 16.0025 26.1875 19.625 26.1875C23.2475 26.1875 26.1875 23.24 26.1875 19.625C26.1875 16.01 23.2475 13.0625 19.625 13.0625Z" fill="#147FB9"/>
<path d="M27.5001 28.0625C27.3576 28.0625 27.2151 28.01 27.1026 27.8975L25.6026 26.3975C25.3851 26.18 25.3851 25.82 25.6026 25.6025C25.8201 25.385 26.1801 25.385 26.3976 25.6025L27.8976 27.1025C28.1151 27.32 28.1151 27.68 27.8976 27.8975C27.7851 28.01 27.6426 28.0625 27.5001 28.0625Z" fill="#147FB9"/>
</svg>
