<svg width="930" height="490" xmlns="http://www.w3.org/2000/svg" preserveAspectRatio="xMidYMid meet">

 <g>
  <title>background</title>
  <rect fill="none" id="canvas_background" height="492" width="932" y="-1" x="-1"/>
 </g>
 <g>
  <title>Layer 1</title>
  <g id="svg_1" fill="#147fb9" transform="translate(0,620) scale(0.10000000149011612,-0.10000000149011612) ">
   <path id="svg_2" d="m4361.18788,6193.29309c-524,-41 -855,-118 -1385,-319c-203,-77 -593,-260 -790,-371c-91,-52 -186,-107 -220,-128c-19,-12 -84,-53 -145,-90c-208,-130 -540,-365 -739,-525c-304,-245 -506,-428 -829,-752l-249,-249l32,-37c101,-117 522,-528 690,-672c75,-64 111,-96 148,-130c47,-43 335,-272 436,-347c61,-45 199,-141 306,-213c107,-72 204,-137 216,-144c11,-8 74,-46 140,-84c65,-39 135,-81 154,-93c52,-34 545,-282 620,-311c36,-15 110,-45 165,-68c55,-23 118,-48 140,-55c22,-7 99,-33 170,-57c449,-153 778,-215 1255,-237c281,-13 697,13 934,59c56,11 102,20 102,20c12,0 -762,2125 -791,2170c-27,43 -55,65 -97,75l-28,7l0,-401l0,-401l-255,0l-255,0l0,950l0,950l255,0l255,0l0,-401l0,-401l28,7c40,9 70,31 86,63c17,34 766,2095 766,2109c0,15 -305,61 -482,73c-133,9 -534,11 -633,3zm-833,-1432c103,-27 171,-63 238,-127c63,-60 99,-120 127,-209c17,-55 18,-105 18,-635c0,-570 0,-576 -23,-647c-55,-176 -198,-296 -396,-334c-146,-27 -358,-1 -469,58c-118,63 -210,190 -239,328c-18,85 -18,1105 0,1190c40,194 185,336 385,380c96,21 269,19 359,-4zm-1262,-43c84,-22 146,-57 196,-110c82,-87 114,-198 114,-394c0,-136 -15,-205 -57,-255c-28,-33 -133,-89 -168,-89c-11,-1 3,-9 30,-19c129,-46 177,-93 212,-206c26,-86 26,-478 0,-575c-30,-112 -86,-172 -191,-207c-44,-14 -113,-17 -498,-21l-448,-3l0,951l0,952l378,-5c288,-3 390,-8 432,-19z"/>
   <path id="svg_3" d="m3289.18788,4423.29309c-17,-25 -18,-65 -18,-633c0,-563 1,-608 18,-633c22,-34 74,-37 103,-6c18,20 19,47 22,618c3,685 4,674 -65,679c-36,3 -44,-1 -60,-25z"/>
   <path id="svg_4" d="m1956.18788,4205.29309l0,-205l49,0c77,0 92,18 102,126c17,179 -7,266 -77,277c-80,14 -74,31 -74,-198z"/>
   <path id="svg_5" d="m1956.18788,3429.29309l0,-261l48,7c64,9 90,28 99,72c12,57 8,363 -5,395c-12,28 -59,48 -114,48l-28,0l0,-261z"/>
   <path id="svg_6" d="m5491.18788,4958.29309c-352,-969 -390,-1080 -393,-1143l-3,-70l376,-1035c207,-569 390,-1077 407,-1127c16,-51 31,-93 34,-93c20,0 396,134 504,180c41,17 92,37 112,45c107,40 585,284 758,387c208,125 476,300 637,418c291,214 609,478 868,720c113,106 463,460 485,491l19,26l-134,144c-134,144 -435,432 -595,569c-47,40 -94,81 -105,91c-43,39 -233,196 -280,233c-197,152 -552,405 -634,452c-14,8 -46,28 -71,44c-125,80 -346,207 -499,288c-314,163 -691,322 -976,413c-55,17 -105,33 -110,35c-6,3 -182,-468 -400,-1068zm620,-193c162,-34 284,-127 350,-267c29,-60 37,-92 46,-182c14,-146 6,-1083 -10,-1145c-20,-77 -61,-150 -117,-210c-100,-109 -243,-161 -439,-161c-258,0 -431,94 -521,283c-50,107 -57,206 -51,795c3,392 7,497 19,537c53,178 177,297 359,345c91,23 264,26 364,5zm1555,-195l0,-170l-235,0l-235,0l0,-155l0,-155l129,0c234,0 358,-29 430,-101c84,-85 107,-227 98,-614c-6,-258 -17,-323 -63,-403c-29,-48 -80,-86 -151,-110c-41,-13 -116,-16 -500,-20l-453,-3l0,950l0,951l490,0l490,0l0,-170z"/>
   <path id="svg_7" d="m5889.18788,4423.29309c-17,-25 -18,-70 -18,-638c0,-478 3,-615 13,-632c20,-35 85,-32 109,4c17,25 18,70 18,639c0,588 -1,613 -19,633c-29,31 -81,28 -103,-6z"/>
   <path id="svg_8" d="m7196.18788,3478.29309l0,-309l48,6c103,15 105,21 100,342c-3,255 -1,250 -92,262l-56,8l0,-309z"/>
  </g>
 </g>
</svg>